<?xml version="1.0" encoding="UTF-8"?>
<svg version="1.1" xmlns="http://www.w3.org/2000/svg" width="736" height="736">
<path d="M0 0 C242.88 0 485.76 0 736 0 C736 242.88 736 485.76 736 736 C493.12 736 250.24 736 0 736 C0 493.12 0 250.24 0 0 Z " fill="#FEFEFE" transform="translate(0,0)"/>
<path d="M0 0 C4.08343832 3.98135236 6.29527625 7.55226881 6.90600586 13.17626953 C6.88407164 14.51645734 6.84016057 15.85641798 6.77734375 17.1953125 C6.76001694 17.92670441 6.74269012 18.65809631 6.72483826 19.41165161 C6.68619943 20.96384488 6.63863994 22.5158387 6.58270264 24.06750488 C6.50084627 26.41324859 6.44880939 28.75772271 6.40673828 31.10449219 C6.33398331 35.04495077 6.23653483 38.98421248 6.12768555 42.92382812 C6.0619695 45.3319399 6.00251953 47.74015674 5.94335938 50.1484375 C5.901418 51.72136425 5.85911328 53.29428136 5.81640625 54.8671875 C5.79969376 55.56641327 5.78298126 56.26563904 5.76576233 56.98605347 C5.65220894 60.88631568 5.39665529 64.74530688 5.02294922 68.62963867 C4.41131489 75.05598036 4.10927815 81.48597582 3.81640625 87.93359375 C3.69221732 90.54102325 3.56786301 93.14844488 3.44335938 95.75585938 C3.25217622 99.80318453 3.06335106 103.85061135 2.87768555 107.89819336 C1.01754226 148.16844776 1.01754226 148.16844776 -2.5 167.4375 C-2.69698486 168.51813721 -2.69698486 168.51813721 -2.89794922 169.62060547 C-4.82648862 179.98783663 -7.12701531 189.78436891 -11.5 199.4375 C-11.78359375 200.0675293 -12.0671875 200.69755859 -12.359375 201.34667969 C-22.99706408 224.66169951 -39.32172568 239.31718451 -60.0546875 253.68359375 C-64.34376411 256.75994422 -68.41472775 260.09823399 -72.5 263.4375 C-73.06589844 263.87835938 -73.63179687 264.31921875 -74.21484375 264.7734375 C-84.61997242 272.99818112 -92.00253609 284.53055052 -97.5 296.4375 C-96.47519531 296.40269531 -95.45039062 296.36789062 -94.39453125 296.33203125 C-93.03387064 296.30387965 -91.6731922 296.27658096 -90.3125 296.25 C-89.30219727 296.21229492 -89.30219727 296.21229492 -88.27148438 296.17382812 C-83.80248803 296.10842818 -81.04381512 296.68119935 -77.5 299.4375 C-75.83024573 302.77700853 -76.37116994 306.53040486 -76.38647461 310.20166016 C-76.38632858 311.10903427 -76.38618256 312.01640839 -76.3860321 312.95127869 C-76.38673049 315.95973068 -76.39451946 318.96812128 -76.40234375 321.9765625 C-76.40420819 324.05878668 -76.40563197 326.14101131 -76.40663147 328.22323608 C-76.41045459 333.71086838 -76.42028314 339.19847433 -76.43133545 344.68609619 C-76.44155398 350.28291467 -76.44613004 355.87973739 -76.45117188 361.4765625 C-76.46190557 372.46355326 -76.47897955 383.45052444 -76.5 394.4375 C-77.16 394.4375 -77.82 394.4375 -78.5 394.4375 C-78.83 395.4275 -79.16 396.4175 -79.5 397.4375 C-82.37470493 398.87485246 -84.31894588 398.81922649 -87.5 398.4375 C-90.5626868 395.5860129 -91.43952244 393.90449364 -91.98101807 389.72319031 C-91.9925879 388.26298824 -91.9821104 386.80250856 -91.95410156 385.3425293 C-91.9545837 384.5291274 -91.95506584 383.7157255 -91.95556259 382.87767506 C-91.95258656 380.2552382 -91.92217257 377.63395105 -91.890625 375.01171875 C-91.88474085 373.38855537 -91.88066199 371.76538441 -91.87841797 370.14221191 C-91.8574813 364.13635855 -91.80163611 358.13066788 -91.75 352.125 C-91.6675 338.698125 -91.585 325.27125 -91.5 311.4375 C-127.8 311.4375 -164.1 311.4375 -201.5 311.4375 C-201.34171174 337.86967018 -201.34171174 337.86967018 -201.13964844 364.30151367 C-201.12158203 369.42053223 -201.12158203 369.42053223 -201.1182251 371.81904602 C-201.11209366 373.48970299 -201.09804765 375.16034256 -201.07769775 376.83088684 C-201.04837079 379.36567809 -201.04437733 381.89939041 -201.04589844 384.43432617 C-201.031506 385.17517299 -201.01711357 385.9160198 -201.002285 386.67931652 C-201.03101222 390.26113649 -201.42912866 392.32097431 -203.3057251 395.40644836 C-205.5 397.4375 -205.5 397.4375 -209.0625 397.9375 C-212.5 397.4375 -212.5 397.4375 -214.375 396.125 C-217.12984347 391.99273479 -216.64090055 387.53271407 -216.62939453 382.77514648 C-216.63202301 381.44794586 -216.63202301 381.44794586 -216.63470459 380.09393311 C-216.63911061 377.16546678 -216.63618974 374.2370607 -216.6328125 371.30859375 C-216.63348584 369.2774301 -216.63445611 367.24626652 -216.63571167 365.21510315 C-216.6371869 360.95727776 -216.63503945 356.69947334 -216.63037109 352.44165039 C-216.62467029 346.97478539 -216.62795615 341.50796943 -216.63394356 336.04110622 C-216.63755078 331.84706754 -216.6364099 327.65304057 -216.63381577 323.45900154 C-216.63314713 321.44269874 -216.63397271 319.42639488 -216.63629532 317.41009331 C-216.63882486 314.59685308 -216.63497711 311.78369321 -216.62939453 308.97045898 C-216.63141876 308.13144547 -216.63344299 307.29243195 -216.63552856 306.42799377 C-216.61426474 300.66602948 -216.61426474 300.66602948 -215.5 298.4375 C-214.84 298.4375 -214.18 298.4375 -213.5 298.4375 C-213.5 297.7775 -213.5 297.1175 -213.5 296.4375 C-210.49686252 294.93593126 -207.70932478 295.34468796 -204.375 295.375 C-203.09367187 295.38402344 -201.81234375 295.39304687 -200.4921875 295.40234375 C-199.01105469 295.41974609 -199.01105469 295.41974609 -197.5 295.4375 C-197.50666183 294.7839856 -197.51332367 294.13047119 -197.52018738 293.45715332 C-197.58721062 286.57744328 -197.63207477 279.69782785 -197.66479492 272.81787109 C-197.67976425 270.25956446 -197.70014693 267.70128296 -197.72631836 265.14306641 C-198.0174421 235.92794237 -194.71219783 213.99791454 -173.92578125 191.88671875 C-170.60005029 188.52885513 -167.12885897 185.46048621 -163.5 182.4375 C-162.59121094 181.64085937 -161.68242187 180.84421875 -160.74609375 180.0234375 C-151.78130768 172.19580316 -142.28168694 165.20728904 -132.5 158.4375 C-131.72269531 157.89834961 -130.94539063 157.35919922 -130.14453125 156.80371094 C-83.9738386 125.07566884 -83.9738386 125.07566884 -60.5 128.4375 C-52.14753474 130.85757327 -46.87469497 134.93451308 -42.37890625 142.265625 C-40.20959034 147.62624565 -40.42941916 154.42710524 -42.3515625 159.83203125 C-48.26149414 169.60335995 -58.84296143 177.19546243 -67.3984375 184.5859375 C-70.20157026 187.05561209 -72.94481985 189.58871488 -75.6875 192.125 C-76.23736572 192.63289062 -76.78723145 193.14078125 -77.35375977 193.6640625 C-80.26369203 196.3557183 -83.16298933 199.05803921 -86.05078125 201.7734375 C-86.62868408 202.31395752 -87.20658691 202.85447754 -87.80200195 203.41137695 C-88.904284 204.44265651 -90.0032863 205.47745703 -91.09838867 206.51635742 C-98.55531352 213.47718748 -98.55531352 213.47718748 -103.5625 213.375 C-106.99090073 212.28082955 -108.43104835 211.38177735 -110.5 208.4375 C-110.9375 205.66015625 -110.9375 205.66015625 -110.5 202.4375 C-108.74853639 200.19398641 -107.18714837 198.4596765 -105.125 196.5625 C-104.61710938 196.06492187 -104.10921875 195.56734375 -103.5859375 195.0546875 C-99.80975275 191.4375 -99.80975275 191.4375 -97.5 191.4375 C-97.5 190.7775 -97.5 190.1175 -97.5 189.4375 C-95.92366615 188.04696976 -94.28595085 186.72577212 -92.625 185.4375 C-87.68773959 181.49529721 -83.25461631 177.29743462 -78.83203125 172.77734375 C-76.18973863 170.12619923 -73.43065589 167.67243317 -70.58984375 165.23828125 C-62.22920887 159.19757824 -62.22920887 159.19757824 -57.125 151.125 C-57.26470154 148.26705048 -57.26470154 148.26705048 -59.5625 146.1875 C-63.95905119 143.56827802 -67.77581037 143.10042501 -72.796875 144.08203125 C-103.18466117 154.36025304 -129.31728581 174.8164535 -153.78369141 195.02783203 C-155.17084614 196.16715372 -156.57337147 197.28774543 -157.98046875 198.40234375 C-170.62231188 208.72273066 -178.73059401 223.50594581 -181.5 239.4375 C-181.58383446 241.33877952 -181.61782138 243.24262989 -181.61352539 245.14575195 C-181.61334412 246.85027527 -181.61334412 246.85027527 -181.61315918 248.5892334 C-181.60804321 249.77279419 -181.60292725 250.95635498 -181.59765625 252.17578125 C-181.59664917 253.27160522 -181.59564209 254.3674292 -181.59460449 255.49645996 C-181.5893815 259.58098399 -181.57542023 263.66549307 -181.5625 267.75 C-181.541875 276.886875 -181.52125 286.02375 -181.5 295.4375 C-159.39 295.4375 -137.28 295.4375 -114.5 295.4375 C-113.18 291.8075 -111.86 288.1775 -110.5 284.4375 C-99.91965762 264.701495 -83.96858209 250.41388698 -65.953125 237.61328125 C-40.66643962 219.64329504 -24.82425246 198.5124572 -19.5 167.4375 C-16.10154088 145.72290871 -14.49793613 124.03660341 -13.42938232 102.10369873 C-13.27418466 98.978431 -13.10690294 95.85386214 -12.93937874 92.7292347 C-11.9729309 74.65242371 -11.24679315 56.58076161 -10.85102844 38.48200989 C-10.6598414 30.10560834 -10.24810177 21.7839445 -9.5 13.4375 C-19.00836105 16.4139307 -22.76695302 21.99689955 -27.5 30.4375 C-30.54598941 36.50127521 -32.04988287 42.37197859 -32.91015625 49.08984375 C-33.41964145 51.98142532 -34.09928381 54.66704946 -34.89990234 57.48632812 C-36.40599716 62.95447358 -37.60413332 68.43935125 -38.69140625 74.00390625 C-38.88218246 74.96344711 -39.07295868 75.92298798 -39.26951599 76.91160583 C-39.87084288 79.94035819 -40.46679099 82.97013826 -41.0625 86 C-41.46513347 88.03327471 -41.86812557 90.06647843 -42.27148438 92.09960938 C-43.01467024 95.84795477 -43.75573276 99.59670592 -44.49438477 103.34594727 C-44.66390656 104.1835257 -44.83342834 105.02110413 -45.00808716 105.88406372 C-45.34860004 107.65160844 -45.65437276 109.42606788 -45.93209839 111.20455933 C-46.07946442 112.09474762 -46.22683044 112.98493591 -46.37866211 113.90209961 C-46.49930527 114.70127304 -46.61994843 115.50044647 -46.74424744 116.32383728 C-47.72718336 119.0728786 -49.03531081 119.94746133 -51.5 121.4375 C-54.41848878 122.05928936 -56.44839574 121.77656714 -59.5 121.4375 C-61.5 120 -61.5 120 -62.5 117.4375 C-62.98917807 111.33426319 -62.18010251 105.57282218 -60.92578125 99.6171875 C-60.67952751 98.39668198 -60.67952751 98.39668198 -60.42829895 97.15151978 C-59.89830986 94.53667038 -59.35578241 91.92461668 -58.8125 89.3125 C-58.44390957 87.50988599 -58.07591101 85.70715085 -57.70849609 83.90429688 C-44.03106026 17.02725898 -44.03106026 17.02725898 -26.6484375 4.359375 C-18.27273348 -1.07709779 -9.73308862 -4.34512885 0 0 Z " fill="#1E1E1E" transform="translate(637.5,245.5625)"/>
<path d="M0 0 C14.22873109 5.56369879 22.21404372 15.97109463 28.859375 29.28515625 C32.39680698 37.70472895 34.06654159 46.13037308 35.5625 55.125 C35.97703107 57.58651889 36.39489899 60.0474786 36.81640625 62.5078125 C36.99631104 63.58691895 37.17621582 64.66602539 37.36157227 65.77783203 C38.05065584 69.25566186 39.01639383 72.59464693 40 76 C40.51431438 78.29043756 41.00467637 80.58636696 41.47265625 82.88671875 C41.73240234 84.15451172 41.99214844 85.42230469 42.25976562 86.72851562 C42.52748634 88.04814816 42.79506311 89.36780991 43.0625 90.6875 C43.59381995 93.29582681 44.12686799 95.90379287 44.66015625 98.51171875 C44.89355713 99.66115967 45.12695801 100.81060059 45.36743164 101.99487305 C45.73777464 103.75425242 46.12874117 105.50993661 46.56884766 107.25317383 C47.76003869 112.0793187 48.00068145 117.31885517 45.4375 121.625 C42.10534325 123.50467817 39.76626089 123.41086482 36 123 C32.04015966 120.36010644 31.43348646 117.92059579 30.40917969 113.38232422 C30.16796387 111.98264404 30.16796387 111.98264404 29.921875 110.5546875 C29.73367187 109.4915332 29.54546875 108.42837891 29.3515625 107.33300781 C29.05378906 105.62129395 29.05378906 105.62129395 28.75 103.875 C26.62289167 92.01893387 24.14989899 80.27616275 21.46484375 68.53515625 C20.49095756 64.26260283 19.58821073 59.98553927 18.75390625 55.68359375 C16.04572899 41.90274239 12.93312903 26.69984677 1 17.75 C-1.53590164 16.27072404 -3.21012394 15.60126639 -6 15 C-5.93279755 15.78086472 -5.86559509 16.56172943 -5.7963562 17.36625671 C-5.13396051 25.44000583 -4.76956301 33.48487612 -4.5703125 41.58203125 C-4.51707648 43.53283784 -4.46382317 45.48364405 -4.40984058 47.43443012 C-4.37224981 48.79508201 -4.33500102 50.15574338 -4.29808331 51.51641369 C-3.4963804 81.05446656 -2.30062658 110.53466903 0 140 C0.05351624 140.70350586 0.10703247 141.40701172 0.16217041 142.13183594 C2.31960992 170.27939673 8.13137344 199.67350776 28 221 C28.87591797 221.9590625 28.87591797 221.9590625 29.76953125 222.9375 C35.57343933 229.0165369 42.49986862 233.66477338 49.34204102 238.48901367 C65.10874379 249.66178986 79.79184191 261.52079733 90.3125 277.9375 C90.72153564 278.56954346 91.13057129 279.20158691 91.55200195 279.8527832 C95.0413761 285.51377033 96.61488194 290.44092532 99 297 C121.11 297 143.22 297 166 297 C166.04125 287.96625 166.0825 278.9325 166.125 269.625 C166.14320801 266.79244629 166.16141602 263.95989258 166.18017578 261.04150391 C166.1860228 258.76985869 166.19111786 256.49821137 166.1953125 254.2265625 C166.20554443 253.06858154 166.21577637 251.91060059 166.22631836 250.7175293 C166.22999488 233.44157889 160.6682879 219.19089805 148.6875 206.5625 C147.800625 205.716875 146.91375 204.87125 146 204 C145.38769531 203.35546875 144.77539062 202.7109375 144.14453125 202.046875 C138.47536723 196.14020501 132.31408914 191.15507934 125.75341797 186.30029297 C124.00550858 185.00408503 122.26985746 183.69271955 120.53515625 182.37890625 C87.22500356 155.8356844 87.22500356 155.8356844 48 145 C45.30509753 146.3030907 44.11046338 147.73878924 42 150 C41.48941131 152.45471355 41.48941131 152.45471355 42 155 C43.44013895 157.08330705 43.44013895 157.08330705 45.5 158.875 C46.23734375 159.56722656 46.9746875 160.25945312 47.734375 160.97265625 C50.38338489 163.34306338 53.03950859 165.70130955 55.734375 168.01953125 C58.53316216 170.46605727 61.26691498 172.98074944 64 175.5 C67.27839637 178.5194289 70.56581444 181.5220256 73.9375 184.4375 C77.60549711 187.61900486 81.18106732 190.89588136 84.75 194.1875 C85.30550537 194.69917725 85.86101074 195.21085449 86.43334961 195.73803711 C87.96200474 197.15196793 89.48154192 198.57513833 91 200 C91.77859375 200.71800781 92.5571875 201.43601562 93.359375 202.17578125 C95 204 95 204 95.5 207 C95 210 95 210 93.375 212.3125 C90.24466964 214.5366821 88.88738714 215.22004078 85 215 C77.99626393 211.05862626 72.14597948 204.54732261 66.30859375 199.0625 C63.94480811 196.85184281 61.53372821 194.70766272 59.08984375 192.5859375 C55.00507397 189.03158759 51.05709837 185.34666571 47.125 181.625 C41.8308869 176.6194213 36.493404 171.71992178 30.91796875 167.02734375 C25.88305329 161.7053048 25.33888005 156.29534657 25.53125 149.2578125 C26.43145635 143.00137834 29.44786223 139.02204551 34.33203125 135.15234375 C42.63706844 129.47701139 49.26097907 129.05669695 59.29296875 130.4609375 C82.12094525 135.1878023 103.57178659 150.28713503 122 164 C123.36920906 164.99949651 124.73900402 165.9981909 126.109375 166.99609375 C134.55638416 173.19224413 142.59434594 179.75680493 150.46313477 186.66943359 C152.01853899 188.01605044 153.60066393 189.32432531 155.19140625 190.62890625 C169.45129005 202.66750078 179.82523019 220.74129571 181.79708862 239.31442261 C182.18947992 244.50780902 182.12088437 249.70490436 182.09765625 254.91015625 C182.0962413 256.11820419 182.09482635 257.32625214 182.09336853 258.57090759 C182.08780395 262.40146437 182.07525803 266.23196111 182.0625 270.0625 C182.05748042 272.67122311 182.05291832 275.27994714 182.04882812 277.88867188 C182.03784613 284.25913481 182.02114354 290.62956311 182 297 C182.95261719 296.94199219 183.90523437 296.88398437 184.88671875 296.82421875 C186.14097656 296.77910156 187.39523437 296.73398437 188.6875 296.6875 C189.92886719 296.62949219 191.17023438 296.57148437 192.44921875 296.51171875 C197.05654524 297.1452895 198.18983751 298.33392039 201 302 C201.70908228 304.95333077 201.66387489 307.81594709 201.61523438 310.84179688 C201.62078339 311.72207047 201.6263324 312.60234406 201.63204956 313.5092926 C201.64384022 316.41300246 201.6195767 319.31514977 201.59375 322.21875 C201.59203867 324.23986744 201.5921048 326.2609871 201.59387207 328.28210449 C201.59221915 332.51559721 201.57352605 336.74856019 201.54199219 340.98193359 C201.5023149 346.40602245 201.49794717 351.82941752 201.50545502 357.25362396 C201.50852588 361.42639512 201.49639999 365.59901056 201.47932434 369.77174377 C201.47229755 371.77160159 201.46916942 373.77147706 201.47001648 375.77134705 C201.46821694 378.56728962 201.44682163 381.36240394 201.41992188 384.15820312 C201.42285248 384.98328873 201.42578308 385.80837433 201.42880249 386.65846252 C201.36073762 391.24819115 200.96862002 394.26797521 198 398 C195.12529507 399.43735246 193.18105412 399.38172649 190 399 C186.9581991 396.15990486 186.06291968 394.4808853 185.51898193 390.32365417 C185.50741462 388.88139665 185.51788408 387.43885799 185.54589844 385.99682617 C185.5454163 385.19333646 185.54493416 384.38984674 185.54443741 383.56200886 C185.54741313 380.97187162 185.57782551 378.38289885 185.609375 375.79296875 C185.61525925 374.18966221 185.61933805 372.58634799 185.62158203 370.98303223 C185.64251753 365.05107065 185.69836273 359.11927377 185.75 353.1875 C185.8325 339.925625 185.915 326.66375 186 313 C149.7 313 113.4 313 76 313 C76.19786458 339.76136045 76.19786458 339.76136045 76.45043945 366.5222168 C76.47302246 371.70471191 76.47302246 371.70471191 76.47721863 374.13288879 C76.48488354 375.82440266 76.50244258 377.51588963 76.52787781 379.20722961 C76.56453475 381.77364353 76.56952865 384.33839242 76.56762695 386.9050293 C76.58561749 387.65524447 76.60360804 388.40545965 76.62214375 389.17840862 C76.58313054 393.11742284 76.12809476 394.83787138 73.65592957 397.96687317 C71 400 71 400 67.9375 400.625 C65 400 65 400 62.8497467 398.01928711 C60.34519792 393.93118583 60.4297501 390.77220236 60.46655273 386.06640625 C60.45362938 384.73136551 60.45362938 384.73136551 60.44044495 383.36935425 C60.4177805 380.43343861 60.4245243 377.49847704 60.43359375 374.5625 C60.42835865 372.5189587 60.42208259 370.47541983 60.41481018 368.43188477 C60.40440528 364.15141418 60.40896924 359.87127603 60.42358398 355.59082031 C60.44077809 350.10600144 60.41726892 344.62222952 60.38209438 339.13752747 C60.36013326 334.91842713 60.36155867 330.69957786 60.3698597 326.48043823 C60.3706798 324.45823009 60.36380521 322.43600363 60.34908867 320.41384888 C60.33166519 317.58644237 60.34616638 314.76092431 60.36889648 311.93359375 C60.35720428 311.09915741 60.34551208 310.26472107 60.33346558 309.40499878 C60.40421057 305.07916597 60.61643985 303.4806682 63.41217041 299.97712708 C65.96732984 298.02496032 66.86441936 297.38473249 69.98828125 297.51171875 C70.69404297 297.52783203 71.39980469 297.54394531 72.12695312 297.56054688 C72.84818359 297.60244141 73.56941406 297.64433594 74.3125 297.6875 C75.05306641 297.71005859 75.79363281 297.73261719 76.55664062 297.75585938 C78.37197357 297.8144185 80.18625681 297.90409114 82 298 C78.52360062 290.2950956 74.20008902 283.65290773 69 277 C68.16662109 275.93265625 68.16662109 275.93265625 67.31640625 274.84375 C59.57516235 265.48742644 49.34425558 258.75442995 39.55883789 251.72998047 C19.86414845 237.57798374 6.23656737 223.09566165 -4 201 C-4.47566406 199.99710938 -4.95132813 198.99421875 -5.44140625 197.9609375 C-8.44599507 190.97220739 -10.08085088 183.80305993 -11.625 176.375 C-11.91636841 175.00226929 -11.91636841 175.00226929 -12.21362305 173.60180664 C-16.61300408 151.02254812 -17.6230812 127.92458519 -18.625 105 C-18.80493928 101.01464232 -18.98971708 97.02951694 -19.17562866 93.04443359 C-19.28910747 90.59699186 -19.39954404 88.14940626 -19.5062561 85.70166016 C-19.78115358 79.61792316 -20.19621301 73.57672109 -20.78009033 67.51519775 C-21.10300358 63.8219055 -21.22784515 60.13495162 -21.31640625 56.4296875 C-21.33718735 55.66431671 -21.35796844 54.89894592 -21.37937927 54.11038208 C-21.4221701 52.50559834 -21.46326143 50.90076842 -21.50268555 49.29589844 C-21.56187604 46.90025389 -21.6271742 44.50483539 -21.69335938 42.109375 C-21.79838943 38.18790026 -21.88445416 34.26639818 -21.95623779 30.34417725 C-21.98578751 28.76130979 -22.01862351 27.17850076 -22.05450439 25.59576416 C-22.10448196 23.27219268 -22.13838964 20.9489105 -22.16796875 18.625 C-22.18517471 17.92792938 -22.20238068 17.23085876 -22.22010803 16.51266479 C-22.25693484 11.64785475 -21.40861004 8.32624172 -18.484375 4.4453125 C-12.83999869 -1.05052759 -7.68656351 -1.17677031 0 0 Z " fill="#1E1E1E" transform="translate(114,244)"/>
<path d="M0 0 C2.70767424 1.90950228 5.27887647 3.904749 7.83203125 6.015625 C9.10626953 7.04623047 9.10626953 7.04623047 10.40625 8.09765625 C19.64151967 15.94692833 27.33720992 25.67692999 31.83203125 37.015625 C31.83203125 37.675625 31.83203125 38.335625 31.83203125 39.015625 C33.12173828 38.32726562 33.12173828 38.32726562 34.4375 37.625 C52.14881672 28.33402491 70.46485466 24.60060539 90.33203125 29.390625 C107.68481325 35.40061291 122.34593402 48.15427077 131.04296875 64.2578125 C138.42626999 79.85711812 138.10255145 95.89715644 138.18212891 112.76757812 C138.19875408 115.35328124 138.22612888 117.9389372 138.26416016 120.52441406 C138.3188034 124.26391276 138.34077605 128.00234395 138.35546875 131.7421875 C138.38947281 133.47512558 138.38947281 133.47512558 138.42416382 135.24307251 C138.40305459 143.22869943 138.40305459 143.22869943 135.48681641 147.24755859 C132.21022898 149.42974051 130.69470662 149.73987663 126.83203125 149.015625 C124.18078613 147.34593201 124.18078613 147.34593201 121.83203125 145.015625 C121.22644043 142.30628967 121.22644043 142.30628967 121.25195312 139.16821289 C121.24669617 137.39970726 121.24669617 137.39970726 121.24133301 135.59547424 C121.26095093 134.32260056 121.28056885 133.04972687 121.30078125 131.73828125 C121.29579353 129.72440414 121.29077682 127.71052667 121.28414154 125.69665432 C121.27823989 121.44846275 121.31661414 117.20044509 121.34747314 112.95239258 C121.37569431 108.79343362 121.38287981 104.63539674 121.36390686 100.47637749 C121.36329949 98.54625034 121.39255352 96.61618589 121.42272949 94.68629456 C121.38686153 82.32952547 117.51497937 71.7053133 109.83203125 62.015625 C109.35507812 61.41363281 108.878125 60.81164062 108.38671875 60.19140625 C99.48568456 50.2392449 86.25424115 44.81773123 73.20703125 43.70703125 C60.31963342 43.27128932 48.52123683 46.09244636 38.83203125 55.015625 C37.64219404 58.58513663 38.19453941 60.33242945 38.83203125 64.015625 C38.93219739 66.66756808 38.98903032 69.29368424 38.99316406 71.9453125 C38.99812897 72.71683655 39.00309387 73.4883606 39.00820923 74.28326416 C39.02273785 76.81906037 39.02961552 79.35479413 39.03515625 81.890625 C39.04091324 83.66129558 39.0466709 85.43196615 39.0524292 87.20263672 C39.06291121 90.90788054 39.06877287 94.61310283 39.07226562 98.31835938 C39.07775925 103.05956329 39.10181754 107.80048134 39.13023758 112.54159546 C39.14887964 116.19621613 39.15407029 119.85076793 39.1556015 123.50543213 C39.15862256 125.25329153 39.16663259 127.00114988 39.17978668 128.7489624 C39.19688812 131.19484183 39.19495771 133.64002214 39.18847656 136.0859375 C39.19769135 136.80299866 39.20690613 137.52005981 39.21640015 138.2588501 C39.17087263 143.75821127 37.87538002 147.84485136 34.078125 151.87890625 C33.48128906 152.35714844 32.88445312 152.83539063 32.26953125 153.328125 C31.67011719 153.81925781 31.07070313 154.31039062 30.453125 154.81640625 C25.85545517 158.21757406 20.31038662 157.62588994 14.83203125 157.015625 C10.02453171 155.11815173 7.21772965 151.81176402 4.70755005 147.32810974 C2.8310649 142.37179895 3.24446395 137.00065145 3.265625 131.76953125 C3.25942642 130.48561996 3.25322784 129.20170868 3.24684143 127.87889099 C3.23646282 125.16297437 3.24095179 122.44758225 3.25561523 119.73168945 C3.26928411 116.97826125 3.26260864 114.22622408 3.23510742 111.47290039 C3.05164996 93.05818746 3.05326186 76.44217989 13.58203125 60.578125 C14.17951172 59.62583008 14.17951172 59.62583008 14.7890625 58.65429688 C17.53385796 54.31379829 17.53385796 54.31379829 18.83203125 53.015625 C18.83203125 45.06400688 15.10946511 39.52214411 10.83203125 33.015625 C10.30480469 32.20609375 9.77757812 31.3965625 9.234375 30.5625 C1.94506625 20.31806607 -8.86665568 14.03163405 -20.16796875 9.015625 C-21.51955078 8.41234375 -21.51955078 8.41234375 -22.8984375 7.796875 C-30.89885957 4.40789137 -38.43438387 3.83461715 -47.04296875 3.828125 C-47.88988281 3.81587891 -48.73679687 3.80363281 -49.609375 3.79101562 C-67.86093766 3.74909014 -83.83810942 12.00242864 -96.98046875 24.265625 C-103.75287454 31.38725245 -109.57083339 40.49279536 -112.16796875 50.015625 C-111.71587686 53.58860925 -110.01130053 55.90964489 -107.98046875 58.828125 C-105.01978319 63.36377318 -102.77861614 67.8763577 -100.79296875 72.890625 C-100.54264893 73.52073486 -100.2923291 74.15084473 -100.03442383 74.80004883 C-97.94764234 80.24511961 -97.04750637 85.05481171 -96.9909668 90.87231445 C-96.97813156 92.02733963 -96.96529633 93.18236481 -96.95207214 94.37239075 C-96.94468521 95.61204086 -96.93729828 96.85169098 -96.9296875 98.12890625 C-96.92161575 99.41242477 -96.91354401 100.6959433 -96.90522766 102.01835632 C-96.89024383 104.73253239 -96.88038504 107.44668271 -96.87280273 110.16088867 C-96.86174649 113.62078328 -96.82733839 117.08003336 -96.78763103 120.53970051 C-96.75505081 123.86107532 -96.75067759 127.18238409 -96.7421875 130.50390625 C-96.72467941 131.73748367 -96.70717133 132.9710611 -96.68913269 134.24201965 C-96.70834377 141.88872431 -97.21974333 147.85346608 -102.7207489 153.65254211 C-106.06254146 156.66975107 -109.15712869 157.38712979 -113.60546875 157.578125 C-119.65722086 157.24606727 -124.43612328 156.0406494 -128.59732056 151.43287659 C-133.6745062 143.61810333 -132.81569123 134.86271745 -132.69140625 125.91796875 C-132.68460499 124.15638388 -132.67988994 122.39478984 -132.67715454 120.63319397 C-132.66380066 116.01477615 -132.61960223 111.39713715 -132.56958008 106.7789917 C-132.53417055 103.01884106 -132.52109519 99.25876853 -132.509161 95.4984808 C-132.49432109 90.992429 -132.46916951 86.4864574 -132.44140625 81.98046875 C-132.43649548 81.1295912 -132.4315847 80.27871365 -132.42652512 79.40205193 C-132.41010944 76.97620024 -132.38670263 74.55052323 -132.36083984 72.12475586 C-132.3565799 71.41959839 -132.35231995 70.71444092 -132.34793091 69.98791504 C-132.28724462 65.25235943 -131.82192764 60.69728598 -131.16796875 56.015625 C-144.31583883 46.63558141 -157.20424799 43.31292555 -173.16796875 45.015625 C-181.63076082 46.5962934 -188.39792559 49.76229212 -195.16796875 55.015625 C-196.19921875 55.758125 -197.23046875 56.500625 -198.29296875 57.265625 C-206.42795554 65.04691671 -213.610259 76.42077542 -214.35487366 87.89601135 C-214.42872922 91.41999314 -214.44423601 94.94008982 -214.44140625 98.46484375 C-214.45649946 100.43589289 -214.47161548 102.40694217 -214.48809242 104.37798023 C-214.52577332 109.21555801 -214.54304139 114.05315628 -214.54882812 118.89086914 C-214.5528711 121.61540194 -214.56741246 124.33950553 -214.59317017 127.06391907 C-214.61662914 129.62468291 -214.62397049 132.18565537 -214.61361694 134.74650574 C-214.62688019 135.90483414 -214.64014343 137.06316254 -214.65380859 138.2565918 C-214.65808365 139.78379097 -214.65808365 139.78379097 -214.66244507 141.34184265 C-215.3002181 144.71510949 -216.51878871 145.90258257 -219.16796875 148.015625 C-222.07581756 148.72444803 -224.11050775 148.35534289 -227.16796875 148.015625 C-228.8888092 146.87059021 -228.8888092 146.87059021 -230.16796875 145.015625 C-230.5556488 142.26795959 -230.5556488 142.26795959 -230.57202148 138.89868164 C-230.59104774 137.00509666 -230.59104774 137.00509666 -230.61045837 135.07325745 C-230.60840508 133.69076373 -230.60541552 132.30827113 -230.6015625 130.92578125 C-230.60612701 129.50149792 -230.61143339 128.07721679 -230.6174469 126.65293884 C-230.62639085 123.66103201 -230.6239463 120.66939177 -230.61401367 117.67749023 C-230.60261037 113.8748414 -230.6225935 110.0731332 -230.65193081 106.27060795 C-230.67045159 103.32340285 -230.66996768 100.37641561 -230.66429329 97.42916679 C-230.66414153 96.02957288 -230.67006392 94.62996279 -230.68258476 93.23042488 C-230.83001656 74.02343402 -223.3644294 58.56786103 -210.078125 44.859375 C-196.07249452 31.68952355 -179.15815974 26.54098921 -160.1953125 26.74609375 C-147.30209022 27.37631868 -136.28250764 32.99829251 -125.16796875 39.015625 C-124.89855469 37.96761719 -124.62914062 36.91960937 -124.3515625 35.83984375 C-119.9723404 20.61391958 -103.86429927 5.3240834 -90.33984375 -2.17578125 C-61.33202446 -17.48275972 -28.07561258 -17.58620369 0 0 Z " fill="#1E1E1E" transform="translate(415.16796875,207.984375)"/>
<path d="M0 0 C13.94927738 -0.53865385 27.38276823 4.15268358 37.84375 13.453125 C48.07683855 24.09622043 52.86303241 36.55873019 52.6171875 51.22265625 C51.59397574 64.40784069 46.0994965 77.60816229 36.2578125 86.67578125 C22.92753508 97.09423455 8.88733596 99.7422319 -7.69140625 98.19921875 C-19.38342201 95.61441361 -29.97618419 88.14769587 -36.69140625 78.19921875 C-44.25488064 65.26512004 -48.13467922 51.89103912 -45 36.890625 C-42.96740232 30.21451966 -39.97187333 24.68418936 -35.69140625 19.19921875 C-35.11648438 18.43738281 -34.5415625 17.67554687 -33.94921875 16.890625 C-27.29409777 8.70289318 -17.62326313 2.41533399 -7.12890625 0.57421875 C-4.75502767 0.33904947 -2.37899842 0.17609422 0 0 Z " fill="#1E1E1E" transform="translate(364.69140625,91.80078125)"/>
<path d="M0 0 C8.66399813 7.01371277 14.46537892 14.93423621 16.625 26.125 C17.56822603 36.70260616 15.8890752 47.36089362 9.46484375 56.03125 C1.78659224 64.76913282 -7.77370453 69.95567356 -19.36328125 71.53125 C-29.66495588 71.88095324 -39.27298858 68.4530416 -47.375 62.125 C-57.93804455 51.08843966 -60.89618067 41.47593743 -60.65234375 26.58984375 C-60.28820644 17.90670878 -56.44725321 10.33604757 -50.375 4.125 C-49.715 4.125 -49.055 4.125 -48.375 4.125 C-48.375 3.465 -48.375 2.805 -48.375 2.125 C-45.23072792 -0.1881018 -41.803146 -2.01726192 -38.375 -3.875 C-37.73046875 -4.22433594 -37.0859375 -4.57367188 -36.421875 -4.93359375 C-24.15318171 -10.50784787 -11.06972168 -6.14984538 0 0 Z " fill="#1E1E1E" transform="translate(272.375,159.875)"/>
<path d="M0 0 C7.32184885 6.06925742 12.23031618 12.62844855 15.25 21.6875 C16.24193384 35.50372135 15.24142072 46.16311417 5.9375 57.125 C-2.08522207 65.42712035 -11.80970645 70.52092796 -23.4375 70.9375 C-34.38143335 70.79114725 -43.03945932 66.32229566 -50.9375 59 C-55.03514399 54.74939877 -57.47480659 50.09328899 -59.75 44.6875 C-60.11609375 43.89859375 -60.4821875 43.1096875 -60.859375 42.296875 C-64.01807152 33.04244837 -61.88769833 22.28024226 -57.75 13.6875 C-51.89540045 4.20156656 -43.81069697 -2.91690638 -33.25 -6.5 C-20.88034756 -9.27250831 -10.12925167 -7.48317428 0 0 Z " fill="#1E1E1E" transform="translate(508.75,160.3125)"/>
<path d="M0 0 C7.71966658 5.20928657 11.158027 11.33022757 14.0390625 20.05078125 C14.5340625 21.53578125 14.5340625 21.53578125 15.0390625 23.05078125 C16.03048223 31.90854768 13.50432268 38.48548463 9.3515625 46.17578125 C2.94464519 54.14113791 -3.80450111 59.31270062 -13.9609375 61.05078125 C-23.85886876 61.83061826 -32.02884799 60.25850347 -39.9609375 54.05078125 C-45.08391344 49.64681948 -48.3974995 45.29835628 -50.9609375 39.05078125 C-51.3734375 38.10203125 -51.7859375 37.15328125 -52.2109375 36.17578125 C-54.5179562 26.56320332 -52.54837806 17.96169367 -47.453125 9.56640625 C-35.94492008 -6.38450103 -16.69069725 -9.40029112 0 0 Z " fill="#FBFBFB" transform="translate(386.9609375,112.94921875)"/>
<path d="M0 0 C6.02722748 3.46504576 11.66229297 7.54493062 13.8125 14.375 C14.65932807 21.8694284 14.29013005 28.14399379 9.8125 34.375 C5.06278803 39.71842597 0.27877443 43.71800914 -6.94921875 44.78125 C-14.78634854 45.03237298 -20.20653364 43.5891758 -26.1875 38.375 C-28.21599627 35.85106455 -29.77855472 33.28463584 -31.1875 30.375 C-31.5175 29.715 -31.8475 29.055 -32.1875 28.375 C-33.14979678 14.97686787 -33.14979678 14.97686787 -29.1875 9.375 C-28.506875 8.364375 -27.82625 7.35375 -27.125 6.3125 C-20.26587995 -1.47075299 -9.49302638 -4.33496581 0 0 Z " fill="#F9F9F9" transform="translate(260.1875,170.625)"/>
<path d="M0 0 C6.58560721 3.75717334 10.24688702 8.56253796 12.5625 15.875 C13.79627039 23.0802191 12.05906354 28.24599191 8.34765625 34.44921875 C5.04465712 38.93753924 1.13081654 41.86525246 -4.4375 42.875 C-16.55709671 43.76571735 -16.55709671 43.76571735 -22 41.1875 C-22.804375 40.424375 -23.60875 39.66125 -24.4375 38.875 C-25.30375 38.1325 -26.17 37.39 -27.0625 36.625 C-32.66028935 30.14334917 -34.16471545 24.62759275 -33.89453125 16.01171875 C-33.23879133 11.51121315 -31.65846875 8.10444498 -28.4375 4.875 C-26.265625 3.66796875 -26.265625 3.66796875 -24.4375 2.875 C-24.4375 2.215 -24.4375 1.555 -24.4375 0.875 C-16.59944728 -3.40030148 -8.16387141 -3.77731364 0 0 Z " fill="#FAFAFA" transform="translate(496.4375,172.125)"/>
<path d="M0 0 C0.33 0 0.66 0 1 0 C1 21.78 1 43.56 1 66 C-0.98 66.495 -0.98 66.495 -3 67 C-3.0698268 59.59323943 -3.12297582 52.18655104 -3.15543652 44.77952671 C-3.17102416 41.33930816 -3.19213408 37.89931652 -3.22631836 34.45922852 C-3.26546007 30.49498303 -3.27976629 26.53082613 -3.29296875 22.56640625 C-3.30845261 21.34417862 -3.32393646 20.12195099 -3.33988953 18.86268616 C-3.34124936 11.89812544 -2.62401495 6.46772774 0 0 Z " fill="#EEEEEE" transform="translate(438,283)"/>
<path d="M0 0 C4.19715565 4.19715565 4.12714514 10.40671432 4.22705078 16.04882812 C4.22673701 18.37632611 4.21560991 20.7038405 4.1953125 23.03125 C4.1924826 24.26290894 4.18965271 25.49456787 4.18673706 26.7635498 C4.17559202 30.67580102 4.15049749 34.58781862 4.125 38.5 C4.11382966 41.16145498 4.10583833 43.82290777 4.09765625 46.484375 C4.07567124 52.98966229 4.04225017 59.49481445 4 66 C2.68 66 1.36 66 0 66 C0 44.22 0 22.44 0 0 Z " fill="#E7E7E7" transform="translate(298,284)"/>
<path d="M0 0 C0.93065133 2.60582371 1.14917407 3.64198224 0.0625 6.25 C-0.4634375 7.11625 -0.4634375 7.11625 -1 8 C-0.2575 8.6496875 -0.2575 8.6496875 0.5 9.3125 C2 11 2 11 2 14 C3.32 13.67 4.64 13.34 6 13 C6.33 14.98 6.66 16.96 7 19 C1.52964787 15.20962911 -2.89962427 11.24972347 -7 6 C-6.34 6 -5.68 6 -5 6 C-4.67 5.34 -4.34 4.68 -4 4 C-3.34 4 -2.68 4 -2 4 C-2.33 3.01 -2.66 2.02 -3 1 C-2.01 0.67 -1.02 0.34 0 0 Z " fill="#232323" transform="translate(174,424)"/>
<path d="M0 0 C1.65 0.33 3.3 0.66 5 1 C5 4.61029169 4.03907418 7.55806676 3 11 C0 11 0 11 -1.6875 9.5 C-2.120625 9.005 -2.55375 8.51 -3 8 C-1.125 2.25 -1.125 2.25 0 0 Z " fill="#181818" transform="translate(554,424)"/>
<path d="M0 0 C3.21272249 1.43993643 5.6206664 3.23018372 8.25 5.5625 C8.95640625 6.18253906 9.6628125 6.80257813 10.390625 7.44140625 C10.92171875 7.95574219 11.4528125 8.47007812 12 9 C12 9.33 12 9.66 12 10 C10.02 10.33 8.04 10.66 6 11 C5.67 9.68 5.34 8.36 5 7 C2.84365964 7 1.07553648 7.4465236 -1 8 C-1.625 5.6875 -1.625 5.6875 -2 3 C-1.34 2.01 -0.68 1.02 0 0 Z " fill="#252525" transform="translate(155,400)"/>
<path d="M0 0 C0.99 0.33 1.98 0.66 3 1 C3 1.66 3 2.32 3 3 C1.9171875 3.5878125 1.9171875 3.5878125 0.8125 4.1875 C-2.91594122 6.59027323 -4.56387861 9.31101619 -7 13 C-7.33 12.01 -7.66 11.02 -8 10 C-8.66 9.67 -9.32 9.34 -10 9 C-8.71142987 7.68445979 -7.41904109 6.37265903 -6.125 5.0625 C-5.04605469 3.96615234 -5.04605469 3.96615234 -3.9453125 2.84765625 C-2 1 -2 1 0 0 Z " fill="#242424" transform="translate(210,249)"/>
<path d="M0 0 C-2.35953094 2.35953094 -3.77895617 2.49141413 -7 3 C-7 3.66 -7 4.32 -7 5 C-9.5 6.625 -9.5 6.625 -12 8 C-12.33 6.35 -12.66 4.7 -13 3 C-9.21656826 -0.94792877 -5.07874402 -0.29300446 0 0 Z " fill="#272727" transform="translate(479,170)"/>
<path d="M0 0 C0.66 0.33 1.32 0.66 2 1 C1.484375 1.7425 0.96875 2.485 0.4375 3.25 C-1.25648169 5.80941622 -1.25648169 5.80941622 -0.625 8.125 C-0.315625 9.053125 -0.315625 9.053125 0 10 C-0.33 10.99 -0.66 11.98 -1 13 C-3 11.8125 -3 11.8125 -5 10 C-5.5625 7.625 -5.5625 7.625 -5 5 C-2.5 2.1875 -2.5 2.1875 0 0 Z " fill="#E0E0E0" transform="translate(160,389)"/>
<path d="M0 0 C0.33 0 0.66 0 1 0 C0.50769231 6.4 0.50769231 6.4 -2.0625 9.4375 C-3.0215625 10.2109375 -3.0215625 10.2109375 -4 11 C-4.99 10.34 -5.98 9.68 -7 9 C-5.85793642 7.49712782 -4.71125043 5.99776716 -3.5625 4.5 C-2.92441406 3.6646875 -2.28632812 2.829375 -1.62890625 1.96875 C-0.82259766 0.99421875 -0.82259766 0.99421875 0 0 Z " fill="#212121" transform="translate(544,506)"/>
<path d="M0 0 C0.66 0.66 1.32 1.32 2 2 C1.67800066 5.97132519 0.16420003 8.70665213 -2 12 C-2.66 11.67 -3.32 11.34 -4 11 C-3.48964169 6.6109185 -2.47785723 3.66291938 0 0 Z " fill="#2F2F2F" transform="translate(453,171)"/>
<path d="M0 0 C0.53625 0.268125 1.0725 0.53625 1.625 0.8125 C0.635 0.8125 -0.355 0.8125 -1.375 0.8125 C-1.375 1.4725 -1.375 2.1325 -1.375 2.8125 C-2.035 2.8125 -2.695 2.8125 -3.375 2.8125 C-3.8390625 3.740625 -3.8390625 3.740625 -4.3125 4.6875 C-5 6.0625 -5.6875 7.4375 -6.375 8.8125 C-7.035 8.8125 -7.695 8.8125 -8.375 8.8125 C-8.375 9.4725 -8.375 10.1325 -8.375 10.8125 C-9.035 10.8125 -9.695 10.8125 -10.375 10.8125 C-9.17190853 5.63920667 -6.21810122 -0.49090273 0 0 Z " fill="#2E2E2E" transform="translate(103.375,244.1875)"/>
<path d="M0 0 C3.36720387 1.39332574 4.9859524 2.9789286 7 6 C5.68 7.32 4.36 8.64 3 10 C1 5.125 1 5.125 1 4 C0.34 3.34 -0.32 2.68 -1 2 C-0.67 1.34 -0.34 0.68 0 0 Z " fill="#2A2A2A" transform="translate(174,417)"/>
<path d="M0 0 C0.99 0 1.98 0 3 0 C3 0.99 3 1.98 3 3 C3.969375 3.2475 4.93875 3.495 5.9375 3.75 C6.948125 4.1625 7.95875 4.575 9 5 C9.875 7.125 9.875 7.125 10 9 C6.56049636 8.38801624 4.48435515 7.07941153 1.75 4.9375 C1.04359375 4.38964844 0.3371875 3.84179688 -0.390625 3.27734375 C-0.92171875 2.85582031 -1.4528125 2.43429688 -2 2 C-1.34 1.34 -0.68 0.68 0 0 Z " fill="#313131" transform="translate(263,170)"/>
<path d="M0 0 C1.98 0.99 1.98 0.99 4 2 C4 2.99 4 3.98 4 5 C5.32 4.67 6.64 4.34 8 4 C8.33 5.98 8.66 7.96 9 10 C7.67823515 9.09674384 6.36784934 8.17682097 5.0625 7.25 C4.33160156 6.73953125 3.60070312 6.2290625 2.84765625 5.703125 C0.79194601 3.80822085 0.37330824 2.72574271 0 0 Z " fill="#303030" transform="translate(172,433)"/>
<path d="M0 0 C0.66 0.66 1.32 1.32 2 2 C0.63875 2.86625 0.63875 2.86625 -0.75 3.75 C-3.95886121 5.81677239 -3.95886121 5.81677239 -6.125 8.1875 C-8.12290524 10.1188084 -9.28952231 10.6127889 -12 11 C-8.42270128 6.33867137 -4.89132699 3.26088466 0 0 Z " fill="#E6E6E6" transform="translate(575,500)"/>
<path d="M0 0 C2.72426311 2.35277269 3.8141763 4.62496331 5 8 C3.68 8.33 2.36 8.66 1 9 C1 7.68 1 6.36 1 5 C0.01 4.67 -0.98 4.34 -2 4 C-1.34 2.68 -0.68 1.36 0 0 Z " fill="#2A2A2A" transform="translate(203,522)"/>
<path d="M0 0 C0.66 0.99 1.32 1.98 2 3 C1.70630173 4.34262065 1.3721042 5.67696283 1 7 C1.33 7.99 1.66 8.98 2 10 C0.35 10 -1.3 10 -3 10 C-2.49287967 6.28111761 -1.88391785 3.26545761 0 0 Z " fill="#262626" transform="translate(597,266)"/>
<path d="M0 0 C0.66 0.66 1.32 1.32 2 2 C0.35 5.3 -1.3 8.6 -3 12 C-3.99 11.67 -4.98 11.34 -6 11 C-4.6875 7.5625 -4.6875 7.5625 -3 4 C-2.01 3.67 -1.02 3.34 0 3 C0 2.01 0 1.02 0 0 Z " fill="#262626" transform="translate(543,530)"/>
<path d="M0 0 C0.66 1.32 1.32 2.64 2 4 C1.04882866 5.1725131 0.08882991 6.33787015 -0.875 7.5 C-1.40867187 8.1496875 -1.94234375 8.799375 -2.4921875 9.46875 C-2.98976563 9.9740625 -3.48734375 10.479375 -4 11 C-4.66 11 -5.32 11 -6 11 C-5.67 10.01 -5.34 9.02 -5 8 C-4.34 7.67 -3.68 7.34 -3 7 C-1.75825204 5.0998823 -1.75825204 5.0998823 -1 3 C-1.33 2.34 -1.66 1.68 -2 1 C-1.34 0.67 -0.68 0.34 0 0 Z " fill="#161616" transform="translate(534,443)"/>
<path d="M0 0 C0.66 0 1.32 0 2 0 C1.67 2.31 1.34 4.62 1 7 C1.33 7 1.66 7 2 7 C1.67 9.31 1.34 11.62 1 14 C-1 12 -1 12 -1.1875 8.125 C-1.120382 5.28539226 -0.90494365 2.71483095 0 0 Z " fill="#2F2F2F" transform="translate(442,474)"/>
<path d="M0 0 C0.66 0 1.32 0 2 0 C2 0.66 2 1.32 2 2 C2.99 1.67 3.98 1.34 5 1 C5.66 1.33 6.32 1.66 7 2 C6.625 4.4375 6.625 4.4375 6 7 C5.01 7.495 5.01 7.495 4 8 C2.68 5.36 1.36 2.72 0 0 Z " fill="#2A2A2A" transform="translate(189,528)"/>
<path d="M0 0 C0.99808262 3.21937927 1.01849014 5.84301752 0.6875 9.1875 C0.60886719 10.06792969 0.53023437 10.94835937 0.44921875 11.85546875 C0.30097656 12.56316406 0.15273437 13.27085937 0 14 C-0.99 14.495 -0.99 14.495 -2 15 C-2.19392201 9.47322267 -1.7479503 5.24385089 0 0 Z " fill="#454545" transform="translate(187,281)"/>
<path d="M0 0 C0.66 0.33 1.32 0.66 2 1 C1.67 2.32 1.34 3.64 1 5 C0.01 5 -0.98 5 -2 5 C-2.33 5.66 -2.66 6.32 -3 7 C-3.66 7 -4.32 7 -5 7 C-4.60196439 4.11424181 -4.20990931 3.17810487 -1.9375 1.25 C-1.298125 0.8375 -0.65875 0.425 0 0 Z " fill="#2D2D2D" transform="translate(491,414)"/>
<path d="M0 0 C4.31392226 0.4793247 6.16569547 1.7457985 9 5 C6 6 6 6 2.8125 4.5625 C1.884375 4.046875 0.95625 3.53125 0 3 C0 2.01 0 1.02 0 0 Z " fill="#242424" transform="translate(412,208)"/>
<path d="M0 0 C3.53600465 1.91135386 5.78972846 3.62642766 8 7 C7.01 7.33 6.02 7.66 5 8 C4.34 7.34 3.68 6.68 3 6 C3 5.01 3 4.02 3 3 C2.01 3 1.02 3 0 3 C0 2.01 0 1.02 0 0 Z " fill="#313131" transform="translate(183,499)"/>
<path d="M0 0 C0.66 0.33 1.32 0.66 2 1 C1.24203125 1.72316406 1.24203125 1.72316406 0.46875 2.4609375 C-0.1809375 3.09257812 -0.830625 3.72421875 -1.5 4.375 C-2.1496875 5.00148438 -2.799375 5.62796875 -3.46875 6.2734375 C-5.22117431 7.86475907 -5.22117431 7.86475907 -5 10 C-5.99 10.33 -6.98 10.66 -8 11 C-8 8 -8 8 -6.25 5.95703125 C-5.5075 5.24933594 -4.765 4.54164063 -4 3.8125 C-2.88625 2.73935547 -2.88625 2.73935547 -1.75 1.64453125 C-1.1725 1.10183594 -0.595 0.55914062 0 0 Z " fill="#DADADA" transform="translate(563,435)"/>
<path d="M0 0 C0.66 0 1.32 0 2 0 C1.44271087 3.34373475 0.64826111 6.03312999 -1 9 C-1.33 9 -1.66 9 -2 9 C-2.125 5.625 -2.125 5.625 -2 2 C-1.34 1.34 -0.68 0.68 0 0 Z " fill="#181818" transform="translate(627,340)"/>
<path d="M0 0 C3.71599191 -0.20086443 4.77208445 -0.1519437 8 2 C7.67 3.32 7.34 4.64 7 6 C5.83054208 5.19152271 4.66449539 4.37810888 3.5 3.5625 C2.8503125 3.11003906 2.200625 2.65757812 1.53125 2.19140625 C1.0259375 1.79824219 0.520625 1.40507812 0 1 C0 0.67 0 0.34 0 0 Z " fill="#2F2F2F" transform="translate(151,493)"/>
<path d="M0 0 C1.32 0.66 2.64 1.32 4 2 C2.02 3.32 0.04 4.64 -2 6 C-2.66 5.34 -3.32 4.68 -4 4 C-2.68 2.68 -1.36 1.36 0 0 Z " fill="#272727" transform="translate(489,431)"/>
<path d="M0 0 C0.99 0.33 1.98 0.66 3 1 C2.01 3.97 1.02 6.94 0 10 C-0.33 10 -0.66 10 -1 10 C-1.125 3.375 -1.125 3.375 0 0 Z " fill="#353535" transform="translate(584,311)"/>
<path d="M0 0 C0.99 0.66 1.98 1.32 3 2 C1.02 4.97 1.02 4.97 -1 8 C-1.66 7.67 -2.32 7.34 -3 7 C-1.125 1.125 -1.125 1.125 0 0 Z " fill="#252525" transform="translate(548,521)"/>
<path d="M0 0 C0.33 0.66 0.66 1.32 1 2 C0.34 2 -0.32 2 -1 2 C-0.67 2.99 -0.34 3.98 0 5 C-0.99 5.66 -1.98 6.32 -3 7 C-3.99 6.01 -4.98 5.02 -6 4 C-4.02 2.68 -2.04 1.36 0 0 Z " fill="#292929" transform="translate(579,478)"/>
<path d="M0 0 C2.64 0.66 5.28 1.32 8 2 C6.04783565 3.95216435 4.46800047 4.84826645 2 6 C2 5.34 2 4.68 2 4 C1.34 3.67 0.68 3.34 0 3 C0 2.01 0 1.02 0 0 Z " fill="#EDEDED" transform="translate(529,457)"/>
<path d="M0 0 C1.32 1.65 2.64 3.3 4 5 C3.34 6.32 2.68 7.64 2 9 C0.25165733 6.377486 -0.51529754 5.00515522 -1 2 C-0.67 1.34 -0.34 0.68 0 0 Z " fill="#333333" transform="translate(284,453)"/>
<path d="M0 0 C1.32 0.33 2.64 0.66 4 1 C3.67 1.99 3.34 2.98 3 4 C2.01 4 1.02 4 0 4 C-1.68798827 5.43750191 -1.68798827 5.43750191 -3 7 C-3 3.48283697 -2.17554415 2.62878252 0 0 Z " fill="#E7E7E7" transform="translate(593,407)"/>
<path d="M0 0 C3.3 0 6.6 0 10 0 C9.01 1.485 9.01 1.485 8 3 C6.0546875 3.29296875 6.0546875 3.29296875 3.875 3.1875 C2.59625 3.125625 1.3175 3.06375 0 3 C0 2.01 0 1.02 0 0 Z " fill="#292929" transform="translate(578,364)"/>
<path d="M0 0 C0.66 0.33 1.32 0.66 2 1 C1.67 2.32 1.34 3.64 1 5 C-1.31 5.33 -3.62 5.66 -6 6 C-4 4 -2 2 0 0 Z " fill="#DEDEDE" transform="translate(450,358)"/>
<path d="M0 0 C1.04478472 3.39555034 1.30152754 6.45705143 1 10 C-0.515625 11.68359375 -0.515625 11.68359375 -2 13 C-1.85851011 11.3954444 -1.71164314 9.79136233 -1.5625 8.1875 C-1.48128906 7.29417969 -1.40007813 6.40085937 -1.31640625 5.48046875 C-1 3 -1 3 0 0 Z " fill="#4E4E4E" transform="translate(580,330)"/>
<path d="M0 0 C2.15377564 2.62198774 3.40072174 4.64404172 4 8 C2.68 8.33 1.36 8.66 0 9 C-0.33 8.34 -0.66 7.68 -1 7 C-0.67 6.01 -0.34 5.02 0 4 C-0.33 3.34 -0.66 2.68 -1 2 C-0.67 1.34 -0.34 0.68 0 0 Z " fill="#2A2A2A" transform="translate(443,239)"/>
<path d="M0 0 C2.64 0.99 5.28 1.98 8 3 C7.67 3.99 7.34 4.98 7 6 C3.62496331 4.8141763 1.35277269 3.72426311 -1 1 C-0.67 0.67 -0.34 0.34 0 0 Z " fill="#353535" transform="translate(403,218)"/>
<path d="M0 0 C2.4375 0.8125 2.4375 0.8125 5 2 C5.33 2.99 5.66 3.98 6 5 C5.34 5.66 4.68 6.32 4 7 C2 5.1875 2 5.1875 0 3 C0 2.01 0 1.02 0 0 Z " fill="#242424" transform="translate(330,170)"/>
<path d="M0 0 C2.8125 -0.25 2.8125 -0.25 6 0 C7.875 2 7.875 2 9 4 C6.25509788 5.37245106 4.87939419 4.93580311 2 4 C0.6875 1.9375 0.6875 1.9375 0 0 Z " fill="#181818" transform="translate(344,169)"/>
<path d="M0 0 C0.625 1.875 0.625 1.875 1 4 C-1.46278801 6.46278801 -3.70676982 6.99771255 -7 8 C-6.02133662 6.85373678 -5.04205413 5.70800212 -4.0625 4.5625 C-3.51722656 3.92441406 -2.97195313 3.28632813 -2.41015625 2.62890625 C-1.63204305 1.73008851 -0.84063472 0.84063472 0 0 Z " fill="#D6D6D6" transform="translate(607,474)"/>
<path d="M0 0 C3 0 3 0 4.6875 1.5 C5.120625 1.995 5.55375 2.49 6 3 C6.33 2.34 6.66 1.68 7 1 C7.66 2.32 8.32 3.64 9 5 C5.26512223 4.5020163 3.18762365 4.12508244 0 2 C0 1.34 0 0.68 0 0 Z " fill="#2B2B2B" transform="translate(528,454)"/>
<path d="M0 0 C0 1.98 0 3.96 0 6 C-0.99 6.495 -0.99 6.495 -2 7 C-4 4 -4 4 -4 1 C-2 0 -2 0 0 0 Z " fill="#ECECEC" transform="translate(306,257)"/>
<path d="M0 0 C0.99 0.66 1.98 1.32 3 2 C2.34 3.65 1.68 5.3 1 7 C-0.32 6.34 -1.64 5.68 -3 5 C-2.01 3.35 -1.02 1.7 0 0 Z " fill="#E9E9E9" transform="translate(289,240)"/>
<path d="M0 0 C0 0.66 0 1.32 0 2 C-0.99 2 -1.98 2 -3 2 C-3.33 2.99 -3.66 3.98 -4 5 C-5.65 4.67 -7.3 4.34 -9 4 C-3.7826087 0 -3.7826087 0 0 0 Z " fill="#393939" transform="translate(227,240)"/>
<path d="M0 0 C0.99 0.66 1.98 1.32 3 2 C-0.4019487 4.09350689 -3.05272412 4.17942163 -7 4 C-5.49736177 0.99472353 -3.08347159 1.02782386 0 0 Z " fill="#161616" transform="translate(263,225)"/>
<path d="M0 0 C3.16115776 1.36983503 3.9927092 1.9890638 6 5 C4.02 5.99 4.02 5.99 2 7 C1.814375 6.071875 1.814375 6.071875 1.625 5.125 C1.12802644 2.80879168 1.12802644 2.80879168 -1 1 C-0.67 0.67 -0.34 0.34 0 0 Z " fill="#2B2B2B" transform="translate(425,217)"/>
<path d="M0 0 C1 3 1 3 0.22265625 5.04296875 C-0.16019531 5.75066406 -0.54304688 6.45835937 -0.9375 7.1875 C-1.31777344 7.90292969 -1.69804687 8.61835938 -2.08984375 9.35546875 C-2.54037109 10.16951172 -2.54037109 10.16951172 -3 11 C-3.83583327 8.62392051 -4.1842383 7.45550373 -3.22265625 5.078125 C-1.61132812 2.5390625 -1.61132812 2.5390625 0 0 Z " fill="#DADADA" transform="translate(467,178)"/>
<path d="M0 0 C0.99 0.33 1.98 0.66 3 1 C3 2.65 3 4.3 3 6 C2.01 6 1.02 6 0 6 C-1.125 2.25 -1.125 2.25 0 0 Z " fill="#171717" transform="translate(283,177)"/>
<path d="M0 0 C0.99 0.99 1.98 1.98 3 3 C1.84826645 5.46800047 0.95216435 7.04783565 -1 9 C-1.33 8.01 -1.66 7.02 -2 6 C-1.34 5.01 -0.68 4.02 0 3 C0 2.01 0 1.02 0 0 Z " fill="#272727" transform="translate(611,462)"/>
<path d="M0 0 C2.5 2.3125 2.5 2.3125 5 5 C5 5.99 5 6.98 5 8 C3.02 6.68 1.04 5.36 -1 4 C-0.67 2.68 -0.34 1.36 0 0 Z " fill="#E2E2E2" transform="translate(261,448)"/>
<path d="M0 0 C1.32 0.66 2.64 1.32 4 2 C4 2.99 4 3.98 4 5 C2.02 4.34 0.04 3.68 -2 3 C-1.34 2.01 -0.68 1.02 0 0 Z " fill="#2D2D2D" transform="translate(466,435)"/>
<path d="M0 0 C2.475 0.99 2.475 0.99 5 2 C1.1496895 4.56687367 -0.58569763 3.83288724 -5 3 C-5 2.67 -5 2.34 -5 2 C-3.35 2 -1.7 2 0 2 C0 1.34 0 0.68 0 0 Z " fill="#3D3D3D" transform="translate(501,250)"/>
<path d="M0 0 C0.99 0.33 1.98 0.66 3 1 C3 1.66 3 2.32 3 3 C1.02 3.99 -0.96 4.98 -3 6 C-3.33 5.01 -3.66 4.02 -4 3 C-2.1875 1.4375 -2.1875 1.4375 0 0 Z " fill="#2C2C2C" transform="translate(210,249)"/>
<path d="M0 0 C1.67542976 0.28604898 3.34385343 0.61781233 5 1 C3.35 2.65 1.7 4.3 0 6 C-0.38218767 4.34385343 -0.71395102 2.67542976 -1 1 C-0.67 0.67 -0.34 0.34 0 0 Z " fill="#262626" transform="translate(315,229)"/>
<path d="M0 0 C0.99 0 1.98 0 3 0 C3.33 1.65 3.66 3.3 4 5 C3.01 5 2.02 5 1 5 C0.34 4.34 -0.32 3.68 -1 3 C-0.67 2.01 -0.34 1.02 0 0 Z " fill="#2C2C2C" transform="translate(282,204)"/>
<path d="M0 0 C0.33 0 0.66 0 1 0 C0.67 2.31 0.34 4.62 0 7 C-1.32 6.34 -2.64 5.68 -4 5 C-2.69254251 3.31295807 -1.35827971 1.64639965 0 0 Z " fill="#2B2B2B" transform="translate(544,506)"/>
<path d="M0 0 C1.32 0.66 2.64 1.32 4 2 C2.625 4 2.625 4 1 6 C0.34 6 -0.32 6 -1 6 C-0.67 4.02 -0.34 2.04 0 0 Z " fill="#262626" transform="translate(562,505)"/>
<path d="M0 0 C1.65 1.65 3.3 3.3 5 5 C2 5 2 5 -1 4 C-0.67 2.68 -0.34 1.36 0 0 Z " fill="#282828" transform="translate(143,467)"/>
<path d="M0 0 C1.32 0 2.64 0 4 0 C4.33 1.32 4.66 2.64 5 4 C3.68 4.33 2.36 4.66 1 5 C0.67 3.35 0.34 1.7 0 0 Z " fill="#262626" transform="translate(122,440)"/>
<path d="M0 0 C0.66 0.66 1.32 1.32 2 2 C-0.97 4.475 -0.97 4.475 -4 7 C-3.67 5.35 -3.34 3.7 -3 2 C-2.01 2 -1.02 2 0 2 C0 1.34 0 0.68 0 0 Z " fill="#252525" transform="translate(511,217)"/>
<path d="M0 0 C-0.33 1.32 -0.66 2.64 -1 4 C-1.66 4 -2.32 4 -3 4 C-3 4.66 -3 5.32 -3 6 C-3.99 5.67 -4.98 5.34 -6 5 C-3.74193548 0 -3.74193548 0 0 0 Z " fill="#161616" transform="translate(271,207)"/>
<path d="M0 0 C0.99 0 1.98 0 3 0 C3.33 1.65 3.66 3.3 4 5 C3.01 5.495 3.01 5.495 2 6 C1.34 4.02 0.68 2.04 0 0 Z " fill="#262626" transform="translate(450,206)"/>
<path d="M0 0 C0.99 0 1.98 0 3 0 C3 0.66 3 1.32 3 2 C3.66 2 4.32 2 5 2 C5 2.66 5 3.32 5 4 C3.35 4 1.7 4 0 4 C-0.33 3.34 -0.66 2.68 -1 2 C-0.67 1.34 -0.34 0.68 0 0 Z " fill="#171717" transform="translate(266,170)"/>
<path d="M0 0 C1.98 1.65 3.96 3.3 6 5 C5.01 5.33 4.02 5.66 3 6 C2.01 5.34 1.02 4.68 0 4 C0 2.68 0 1.36 0 0 Z " fill="#343434" transform="translate(340,160)"/>
<path d="M0 0 C-0.99 0.33 -1.98 0.66 -3 1 C-3.33 1.66 -3.66 2.32 -4 3 C-5.98 3 -7.96 3 -10 3 C-4.375 -1.3125 -4.375 -1.3125 0 0 Z " fill="#3F3F3F" transform="translate(476,156)"/>
</svg>
