<?xml version="1.0" encoding="UTF-8"?>
<svg version="1.1" xmlns="http://www.w3.org/2000/svg" width="512" height="512">
<path d="M0 0 C168.96 0 337.92 0 512 0 C512 168.96 512 337.92 512 512 C343.04 512 174.08 512 0 512 C0 343.04 0 174.08 0 0 Z " fill="#FEFEFE" transform="translate(0,0)"/>
<path d="M0 0 C4.00785291 6.80255143 6.11704197 14.17461285 8.4140625 21.69140625 C8.83214038 23.04080638 9.25088744 24.38999933 9.67025757 25.73899841 C10.77381758 29.2942866 11.8694405 32.85196814 12.9630127 36.41033936 C14.68199673 41.99886011 16.41306492 47.58366024 18.14322281 53.16872978 C18.57400275 54.55955819 19.00453178 55.95046433 19.43481064 57.34144783 C22.69716735 67.88478062 26.02870723 78.40428917 29.421875 88.90625 C29.6280608 89.54451281 29.8342466 90.18277561 30.04668045 90.84037971 C34.12917178 103.50074715 34.12917178 103.50074715 38.37289429 116.10765076 C39.95642236 120.96802789 40.46843242 124.95073427 40 130 C37 132 37 132 33.69750977 131.82958984 C29.84784929 130.96586279 27.21857656 129.73861386 23.83984375 127.7265625 C22.71642578 127.0665625 21.59300781 126.4065625 20.43554688 125.7265625 C19.26925873 125.02649547 18.10324511 124.32597091 16.9375 123.625 C14.63620026 122.25947069 12.3315823 120.89963529 10.02734375 119.5390625 C9.01406006 118.93271973 8.00077637 118.32637695 6.95678711 117.70166016 C4.02223391 116.01279583 1.04283777 114.48333032 -2 113 C-2.27005859 113.71446289 -2.54011719 114.42892578 -2.81835938 115.16503906 C-4.011935 118.02863414 -5.38826523 120.65468893 -6.90625 123.359375 C-7.48036621 124.38442139 -8.05448242 125.40946777 -8.64599609 126.46557617 C-9.56372803 128.09136597 -9.56372803 128.09136597 -10.5 129.75 C-11.1285791 130.86802002 -11.7571582 131.98604004 -12.40478516 133.13793945 C-16.34858787 140.13233338 -20.34022323 147.09557418 -24.45117188 153.99316406 C-27.06954083 158.38811304 -29.61993332 162.8194756 -32.15478516 167.26293945 C-32.5251741 167.91169289 -32.89556305 168.56044632 -33.2771759 169.22885895 C-34.18503367 170.81909675 -35.09255108 172.40952886 -36 174 C-34.30324127 174.00546844 -34.30324127 174.00546844 -32.57220459 174.01104736 C-21.91878914 174.04796755 -11.26566354 174.10570759 -0.61246872 174.18390274 C4.86464904 174.22343408 10.34160467 174.25559482 15.81884766 174.27099609 C21.10342246 174.28612538 26.38755168 174.3205046 31.67192841 174.36830902 C33.68932983 174.38316134 35.70679487 174.39104321 37.72425079 174.39188385 C40.54744636 174.39424368 43.3694006 174.42124362 46.19238281 174.45410156 C47.02891891 174.4490712 47.86545502 174.44404083 48.7273407 174.43885803 C52.08426663 174.4994196 54.5677098 174.75742419 57.51812744 176.4130249 C59.84185054 180.46965835 59.55668895 184.33993538 59.51757812 188.9375 C59.5245874 189.94603027 59.53159668 190.95456055 59.53881836 191.99365234 C59.55643218 195.32938114 59.5447631 198.66426248 59.53125 202 C59.53394393 204.31640791 59.53782551 206.63281472 59.54284668 208.94921875 C59.54874634 213.80479698 59.54016338 218.66008096 59.52148438 223.515625 C59.49869496 229.74364646 59.51181548 235.97097845 59.53577423 242.19897461 C59.55021932 246.98247485 59.54563205 251.76581127 59.53526306 256.54931641 C59.53259223 258.84586671 59.535878 261.14243183 59.54518127 263.43896484 C59.55532527 266.6472114 59.53987483 269.85433706 59.51757812 273.0625 C59.52567505 274.01431152 59.53377197 274.96612305 59.54211426 275.94677734 C59.53083496 276.82156738 59.51955566 277.69635742 59.50793457 278.59765625 C59.50642647 279.35570557 59.50491837 280.11375488 59.50336456 280.89477539 C58.77680209 283.93348194 57.45934081 285.12162839 55 287 C52.52668762 287.50057125 52.52668762 287.50057125 49.70239258 287.50120544 C48.62880997 287.51103958 47.55522736 287.52087372 46.44911194 287.53100586 C45.27610031 287.52133789 44.10308868 287.51166992 42.89453125 287.50170898 C41.65501205 287.50711197 40.41549286 287.51251495 39.13841248 287.51808167 C35.73883921 287.52845138 32.34023822 287.52085522 28.94075012 287.50437045 C25.37358219 287.49049784 21.806443 287.49698347 18.23925781 287.50050354 C12.24031463 287.50320674 6.24157136 287.48973046 0.24267578 287.46655273 C-6.66687478 287.44003914 -13.57608907 287.43816447 -20.48567295 287.4499411 C-27.15240795 287.46077708 -33.81902276 287.45448022 -40.48574829 287.44038582 C-43.31160363 287.43466639 -46.13736983 287.43467677 -48.96322632 287.43945122 C-52.92873517 287.44517464 -56.89391746 287.42576403 -60.859375 287.40405273 C-62.59460167 287.41080521 -62.59460167 287.41080521 -64.36488342 287.41769409 C-80.87348563 287.26852386 -95.5209418 281.91138403 -107.62109375 270.50390625 C-108.79865234 269.26447266 -108.79865234 269.26447266 -110 268 C-110.52754883 267.45786865 -111.05509766 266.9157373 -111.59863281 266.35717773 C-116.78280299 260.78469909 -120.28336083 254.6135217 -123.875 247.9375 C-125.10364956 245.69561663 -126.33411228 243.45472597 -127.56640625 241.21484375 C-128.15566895 240.14089355 -128.74493164 239.06694336 -129.35205078 237.96044922 C-131.41738267 234.25019521 -133.58923439 230.6170145 -135.8125 227 C-148.66751425 205.84471041 -158.91975269 183.11144776 -152.76245117 157.82641602 C-150.17916755 148.30432673 -146.01614871 139.71944523 -141.25 131.125 C-140.54870972 129.85402466 -140.54870972 129.85402466 -139.83325195 128.55737305 C-135.43009703 120.64615167 -130.80573198 112.87012516 -126.16323853 105.09768677 C-120.53893705 95.67784647 -115.09830971 86.16856566 -109.7800293 76.5715332 C-105.94771312 69.6576574 -102.00781493 62.81366029 -98 56 C-98.71696045 55.72833008 -99.4339209 55.45666016 -100.17260742 55.17675781 C-105.10609263 53.12344646 -109.66636576 50.37722581 -114.3125 47.75 C-115.31990234 47.18925781 -116.32730469 46.62851563 -117.36523438 46.05078125 C-121.91886814 43.48176051 -126.42122479 40.85518746 -130.73046875 37.890625 C-131.68602661 37.23368652 -131.68602661 37.23368652 -132.66088867 36.56347656 C-134 35 -134 35 -134.3918457 32.50683594 C-134 30 -134 30 -132.84716797 28.28393555 C-130.43695165 26.60863451 -128.31082768 26.10281672 -125.4453125 25.45703125 C-124.29281006 25.19220947 -123.14030762 24.9273877 -121.95288086 24.65454102 C-120.05807983 24.23773071 -120.05807983 24.23773071 -118.125 23.8125 C-116.78441576 23.50978876 -115.44400606 23.20630362 -114.10375977 22.90209961 C-109.73974974 21.91676454 -105.3704077 20.95649813 -101 20 C-100.26670471 19.83910889 -99.53340942 19.67821777 -98.77789307 19.51245117 C-87.9970037 17.14797413 -77.20684207 14.82720597 -66.41424561 12.5168457 C-59.90307436 11.12292336 -53.39243396 9.72656103 -46.88287354 8.32513428 C-45.30288222 7.98522631 -43.72276457 7.64590499 -42.14251709 7.30718994 C-32.08537677 5.15040838 -22.04987247 2.93676556 -12.109375 0.2824707 C-4.19397664 -1.73190114 -4.19397664 -1.73190114 0 0 Z " fill="#080808" transform="translate(154,176)"/>
<path d="M0 0 C1.24602493 -0.01283524 2.49204987 -0.02567047 3.77583313 -0.03889465 C5.12683709 -0.04707065 6.47784567 -0.05451272 7.82885742 -0.0612793 C8.86445077 -0.06739259 8.86445077 -0.06739259 9.92096519 -0.07362938 C13.58451402 -0.09443895 17.24802611 -0.10875544 20.91162109 -0.11816406 C23.90727405 -0.12697148 26.9024552 -0.14772614 29.89794922 -0.1796875 C59.81178883 -0.49192649 83.79506005 2.46800531 106.74682617 23.73950195 C112.90348764 30.14984519 117.18752183 37.53159912 121.62182617 45.17700195 C122.18562988 46.14299316 122.74943359 47.10898437 123.33032227 48.10424805 C128.86276932 57.59496438 134.31446629 67.13151176 139.75854492 76.6730957 C140.24693848 77.5290332 140.73533203 78.3849707 141.23852539 79.2668457 C142.19543234 80.94474536 143.15149977 82.6231241 144.10668945 84.30200195 C146.86285 89.13625712 149.65489465 93.9474865 152.47729492 98.7434082 C153.12496826 99.84539551 153.7726416 100.94738281 154.43994141 102.08276367 C155.70773911 104.23640157 156.97926634 106.38784922 158.25488281 108.53686523 C158.82456787 109.50479004 159.39425293 110.47271484 159.98120117 111.4699707 C160.7464209 112.76197388 160.7464209 112.76197388 161.52709961 114.08007812 C162.62182617 116.17700195 162.62182617 116.17700195 162.62182617 118.17700195 C168.30550178 115.12015324 173.94842664 112.01098564 179.51635742 108.74731445 C180.4915332 108.18012695 181.46670898 107.61293945 182.47143555 107.02856445 C184.47149199 105.86307342 186.46619353 104.68835104 188.45581055 103.50512695 C189.42454102 102.94567383 190.39327148 102.3862207 191.39135742 101.80981445 C192.25349854 101.30337402 193.11563965 100.79693359 194.00390625 100.27514648 C197.07984199 98.98487707 199.31590338 98.90836865 202.62182617 99.17700195 C204.55932617 100.17700195 204.55932617 100.17700195 205.62182617 102.17700195 C205.33633916 109.46584219 202.81121294 116.07611313 200.44665527 122.90805054 C199.08467619 126.85010218 197.75271285 130.80222562 196.42260742 134.75512695 C196.127966 135.63053635 195.83332458 136.50594574 195.52975464 137.40788269 C191.31225514 150.00682938 187.35582212 162.69026136 183.37182617 175.36450195 C182.80904465 177.15475296 182.80904465 177.15475296 182.2348938 178.98117065 C181.49383975 181.3389226 180.75294773 183.69672548 180.01222229 186.05458069 C178.9317175 189.49107293 177.84813614 192.92658485 176.7644043 196.36206055 C175.29370833 201.02675081 173.84253667 205.69703343 172.40112305 210.37084961 C171.68843291 212.65655666 170.97554993 214.9422036 170.26245117 217.2277832 C169.93976257 218.28781052 169.61707397 219.34783783 169.28460693 220.43998718 C168.9785553 221.41450333 168.67250366 222.38901947 168.35717773 223.39306641 C168.09342346 224.24769974 167.82966919 225.10233307 167.55792236 225.98286438 C166.54273363 228.3623888 165.68288198 229.62087913 163.62182617 231.17700195 C157.52300201 231.70413234 152.11244104 230.61905641 146.19995117 229.20043945 C145.31038727 228.99470306 144.42082336 228.78896667 143.50430298 228.57699585 C140.6249657 227.90966485 137.74849679 227.23072603 134.87182617 226.55200195 C131.87515836 225.85525632 128.87774243 225.1618022 125.88021851 224.46875 C123.89418817 224.00953721 121.90836741 223.54941704 119.92276001 223.08837891 C112.13124365 221.28230651 104.32380117 219.57331654 96.49682617 217.92700195 C86.67194546 215.8522409 76.88125356 213.65745008 67.10546875 211.36230469 C61.74506657 210.10835864 56.38119641 208.90439144 50.98901367 207.79418945 C49.92851807 207.57384033 48.86802246 207.35349121 47.77539062 207.12646484 C45.7654862 206.71229214 43.75365653 206.3073188 41.73974609 205.91308594 C40.84618408 205.72818604 39.95262207 205.54328613 39.03198242 205.3527832 C38.24960205 205.19720947 37.46722168 205.04163574 36.66113281 204.88134766 C34.26780911 204.05472981 33.17261179 203.16561388 31.62182617 201.17700195 C31.12182617 198.23950195 31.12182617 198.23950195 31.62182617 195.17700195 C34.80426498 192.2862867 38.22057571 190.13483395 41.96557617 188.0480957 C42.96459961 187.48799805 43.96362305 186.92790039 44.99291992 186.35083008 C46.02545898 185.7778418 47.05799805 185.20485352 48.12182617 184.61450195 C50.17420096 183.46788807 52.22629413 182.32076992 54.27807617 181.1730957 C55.18364258 180.66963623 56.08920898 180.16617676 57.0222168 179.64746094 C58.81430603 178.6337726 60.58315385 177.57825145 62.33081055 176.48974609 C64.62182617 175.17700195 64.62182617 175.17700195 66.62182617 175.17700195 C57.62152574 158.54904456 48.18841579 142.18765546 38.50854492 125.9465332 C37.80387085 124.76063599 37.80387085 124.76063599 37.08496094 123.55078125 C36.21582898 122.09017654 35.34283319 120.63186157 34.46533203 119.17626953 C31.62182617 114.39920387 31.62182617 114.39920387 31.62182617 112.17700195 C30.96182617 112.17700195 30.30182617 112.17700195 29.62182617 112.17700195 C29.25831055 113.17280273 29.25831055 113.17280273 28.88745117 114.1887207 C27.29700411 117.94394294 25.36570181 121.43561423 23.37182617 124.98950195 C22.93563965 125.77083496 22.49945313 126.55216797 22.05004883 127.35717773 C17.87038751 134.80560443 13.56341218 142.1787449 9.24047852 149.54467773 C5.89018855 155.26073072 2.57635882 160.99512494 -0.69067383 166.7590332 C-1.05099701 167.3938562 -1.41132019 168.0286792 -1.78256226 168.68273926 C-3.54332448 171.78572066 -5.29946398 174.891174 -7.04858398 178.00073242 C-7.68586426 179.12495605 -8.32314453 180.24917969 -8.97973633 181.4074707 C-9.82012451 182.89863403 -9.82012451 182.89863403 -10.67749023 184.41992188 C-12.40726807 187.22416837 -14.16481187 189.73449258 -16.37817383 192.17700195 C-23.44520603 193.80368456 -28.66971212 189.53409437 -34.50317383 185.92700195 C-36.66144161 184.62915133 -38.82030642 183.33229305 -40.97973633 182.03637695 C-42.05771484 181.3834668 -43.13569336 180.73055664 -44.24633789 180.05786133 C-48.74759667 177.35457963 -53.30855648 174.76243177 -57.87817383 172.17700195 C-68.48737832 166.13922681 -79.03131899 159.99140412 -89.56469727 153.82250977 C-92.24215719 152.25655351 -94.92291883 150.69641798 -97.60473633 149.13793945 C-99.15428127 148.23440642 -100.70376473 147.33076791 -102.25317383 146.42700195 C-102.95474609 146.02078613 -103.65631836 145.61457031 -104.37915039 145.19604492 C-106.97263412 143.6786928 -109.24371396 142.31146182 -111.37817383 140.17700195 C-112.24744582 134.41915085 -109.88964658 130.76555373 -107.06567383 125.98950195 C-106.61417969 125.20269043 -106.16268555 124.41587891 -105.69750977 123.60522461 C-104.26926269 121.12227958 -102.82399563 118.64974428 -101.37817383 116.17700195 C-100.50310338 114.65826071 -99.62937293 113.13874647 -98.75708008 111.6184082 C-94.91489302 104.93521798 -91.02429714 98.28035958 -87.13208008 91.6262207 C-85.98479003 89.66407152 -84.83765812 87.70182988 -83.69067383 85.73950195 C-83.10995117 84.7460376 -82.52922852 83.75257324 -81.9309082 82.72900391 C-77.63244191 75.361288 -73.38709318 67.96454626 -69.16293335 60.55410767 C-66.83248404 56.46731595 -64.496514 52.38367486 -62.16137695 48.29956055 C-61.04841938 46.35066579 -59.93740689 44.40065741 -58.8293457 42.44897461 C-47.46619891 22.45283903 -35.28896727 7.87506001 -12.37817383 1.17700195 C-8.20933182 0.36781098 -4.2436358 0.03832172 0 0 Z " fill="#070707" transform="translate(226.378173828125,1.822998046875)"/>
<path d="M0 0 C2.85153102 3.13498202 4.9657345 6.47826434 6.99609375 10.18359375 C7.54789307 11.18213379 8.09969238 12.18067383 8.66821289 13.20947266 C9.25207764 14.27472168 9.83594238 15.3399707 10.4375 16.4375 C15.03264597 24.73751624 19.70170979 32.9776021 24.5625 41.125 C29.61157806 49.5959578 34.5026099 58.14543577 39.33398438 66.7421875 C42.52047095 72.40447758 45.75386744 78.03328395 49.0625 83.625 C49.4541333 84.29241211 49.8457666 84.95982422 50.24926758 85.64746094 C52.51346447 89.50419673 54.8142002 93.33516706 57.14453125 97.15234375 C67.6076463 114.52051621 73.61259413 131.57421723 68.5625 151.9375 C65.7734904 160.51684095 61.46930993 168.20458579 57 176 C56.47019531 176.92699707 55.94039063 177.85399414 55.39453125 178.80908203 C51.8775675 184.94063067 48.30676054 191.03855546 44.70166016 197.11865234 C43.1330212 199.77476094 41.58569162 202.44207054 40.04296875 205.11328125 C27.90736425 225.89207582 11.80564629 240.65182766 -12 247 C-17.42987725 248.15077126 -22.70653424 248.1344016 -28.22802734 248.11352539 C-29.75089859 248.11374443 -29.75089859 248.11374443 -31.30453491 248.1139679 C-34.64835778 248.11327321 -37.99212441 248.10550161 -41.3359375 248.09765625 C-43.65906748 248.09579049 -45.98219785 248.09436733 -48.30532837 248.09336853 C-54.41104219 248.08955578 -60.51673212 248.07973609 -66.62243652 248.06866455 C-72.85636064 248.05842373 -79.09028864 248.05386519 -85.32421875 248.04882812 C-97.54948965 248.03811271 -109.77474284 248.0210512 -122 248 C-121.98952637 249.26183105 -121.97905273 250.52366211 -121.96826172 251.82373047 C-121.93213101 256.49394914 -121.90912484 261.16415539 -121.89013672 265.83447266 C-121.88006329 267.85793127 -121.86640405 269.88137528 -121.84912109 271.90478516 C-121.82493153 274.80895589 -121.81353051 277.71293461 -121.8046875 280.6171875 C-121.79436493 281.52556366 -121.78404236 282.43393982 -121.77340698 283.36984253 C-121.77325592 284.21056305 -121.77310486 285.05128357 -121.77294922 285.91748047 C-121.768508 286.65916473 -121.76406677 287.400849 -121.75949097 288.16500854 C-122 290 -122 290 -124 292 C-127.34304677 292.551765 -129.80964755 292.84628787 -132.67578125 290.80859375 C-134.38947134 289.11158191 -135.94979179 287.34748921 -137.5 285.5 C-138.35670288 284.52824829 -138.35670288 284.52824829 -139.23071289 283.53686523 C-140.83905941 281.70632956 -142.42243883 279.85706094 -144 278 C-145.14447793 276.68631794 -146.28998431 275.37352937 -147.4375 274.0625 C-147.95699219 273.46050781 -148.47648437 272.85851562 -149.01171875 272.23828125 C-152.4650323 268.35075932 -156.04003203 264.5758673 -159.59423828 260.78076172 C-167.38995083 252.45526356 -175.07893953 244.03730891 -182.69921875 235.55078125 C-188.59430237 229.01514525 -194.56425914 222.54706691 -200.54052734 216.08569336 C-201.55055843 214.99189806 -202.55871689 213.8963704 -203.56494141 212.79907227 C-205.99024682 210.15635582 -208.43461307 207.54238981 -210.9453125 204.98046875 C-211.85023438 204.03816406 -212.75515625 203.09585938 -213.6875 202.125 C-214.89986328 200.89136719 -214.89986328 200.89136719 -216.13671875 199.6328125 C-218.54123705 196.23523318 -219.11408581 194.16641373 -219 190 C-217.30565491 187.54196287 -215.86501957 185.8363331 -213.75 183.8125 C-212.62965363 182.67372255 -211.50987373 181.53438755 -210.390625 180.39453125 C-209.82021484 179.82686035 -209.24980469 179.25918945 -208.66210938 178.67431641 C-206.19286648 176.18693865 -203.85329989 173.59757517 -201.5 171 C-200.59976995 170.01488271 -199.69871979 169.03051426 -198.796875 168.046875 C-198.34376953 167.55251953 -197.89066406 167.05816406 -197.42382812 166.54882812 C-195.91654888 164.90922258 -194.40429181 163.27433478 -192.890625 161.640625 C-186.67621596 154.95636108 -186.67621596 154.95636108 -180.625 148.125 C-176.59055287 143.45458091 -172.33486662 138.98959763 -168.11376953 134.48876953 C-165.19152383 131.36719132 -162.2879501 128.24312563 -159.5 125 C-155.56413723 120.42480927 -151.40531627 116.05693544 -147.27807617 111.65527344 C-143.04841094 107.1392453 -138.88184828 102.57653306 -134.76953125 97.953125 C-134.18558594 97.30859375 -133.60164063 96.6640625 -133 96 C-132.48953125 95.41347656 -131.9790625 94.82695312 -131.453125 94.22265625 C-130 93 -130 93 -126.9375 93.1875 C-124 94 -124 94 -122 96 C-121.82451364 99.08440856 -121.76862947 102.08039101 -121.8046875 105.1640625 C-121.80670166 105.96803467 -121.80871582 106.77200684 -121.81079102 107.6003418 C-121.82126887 110.60861909 -121.84919141 113.61681517 -121.875 116.625 C-121.91625 123.34875 -121.9575 130.0725 -122 137 C-98.24 136.67 -74.48 136.34 -50 136 C-54.95 127.42 -59.9 118.84 -65 110 C-66.40378906 107.56367188 -67.80757812 105.12734375 -69.25390625 102.6171875 C-69.81126465 101.65014893 -70.36862305 100.68311035 -70.94287109 99.68676758 C-72.09158533 97.69253455 -73.23890469 95.69749775 -74.38525391 93.7019043 C-77.552074 88.19931747 -80.75376303 82.72187189 -84.01953125 77.27734375 C-84.99007446 75.64853271 -84.99007446 75.64853271 -85.98022461 73.98681641 C-87.20958763 71.92726506 -88.44816246 69.87317388 -89.69750977 67.82568359 C-92.68823495 62.79930616 -94.75560857 58.88983351 -95 53 C-89.02148559 48.1566608 -82.61973115 44.32563735 -75.91784668 40.56781006 C-74.07550165 39.53474459 -72.2370237 38.49507654 -70.39941406 37.45361328 C-68.48720767 36.36995593 -66.57480001 35.28667526 -64.66125488 34.2053833 C-58.33667964 30.63131535 -52.04034347 27.00895327 -45.75 23.375 C-44.69820557 22.76769043 -43.64641113 22.16038086 -42.56274414 21.53466797 C-34.88799326 17.09937109 -27.2221238 12.6488665 -19.5625 8.1875 C-18.54317383 7.59437012 -17.52384766 7.00124023 -16.47363281 6.39013672 C-15.53487305 5.84244629 -14.59611328 5.29475586 -13.62890625 4.73046875 C-12.80463135 4.24989014 -11.98035645 3.76931152 -11.13110352 3.27416992 C-4.56433653 -0.65204808 -4.56433653 -0.65204808 0 0 Z " fill="#060606" transform="translate(442,217)"/>
<path d="M0 0 C0.33 0 0.66 0 1 0 C1.02505615 0.9286084 1.0501123 1.8572168 1.07592773 2.81396484 C1.17097932 6.25435804 1.27021707 9.69457713 1.37231445 13.13476562 C1.41566589 14.62462641 1.45734084 16.11453695 1.49731445 17.60449219 C1.55501215 19.74429327 1.61870755 21.88384385 1.68359375 24.0234375 C1.72025146 25.31169434 1.75690918 26.59995117 1.79467773 27.92724609 C1.79530675 30.9127682 1.79530675 30.9127682 3 33 C60.72816195 35.61290672 60.72816195 35.61290672 118.3125 32.25 C119.02402222 32.17149811 119.73554443 32.09299622 120.46862793 32.01211548 C144.16464569 29.29314665 169.50740161 23.34666844 185 4 C185.98527149 2.98548529 186.98011312 1.97970952 188 1 C193.27630853 11.48195221 193.91207418 24.7462209 191.0625 36.125 C185.40213684 51.28854166 175.80935539 65.39526972 167.61132812 79.25634766 C166.20375998 81.65305232 164.82153037 84.06128381 163.453125 86.48046875 C153.31556994 104.25245177 140.69955036 115.02763338 121 121 C120.00043777 121.3448645 119.00087555 121.689729 117.97102356 122.04504395 C113.07873366 123.42764249 108.18922804 123.29206646 103.1394043 123.28710938 C102.06870193 123.29394241 100.99799957 123.30077545 99.89485168 123.30781555 C97.57974521 123.32136382 95.26460915 123.33044255 92.94946861 123.33552551 C89.28951496 123.34382873 85.62980909 123.36434398 81.96992493 123.38806152 C72.88704654 123.444409 63.80410836 123.47976505 54.72113037 123.51568604 C47.03308196 123.54686838 39.34515568 123.58599166 31.65720558 123.63594055 C28.04421517 123.65606896 24.43131798 123.6643383 20.81828308 123.67224121 C18.61672621 123.68520567 16.41517251 123.6987248 14.21362305 123.71289062 C13.20322968 123.71190872 12.1928363 123.71092682 11.15182495 123.70991516 C9.77453972 123.72232491 9.77453972 123.72232491 8.36943054 123.73498535 C7.16906678 123.73938503 7.16906678 123.73938503 5.94445324 123.7438736 C3.76376804 123.83042691 3.76376804 123.83042691 2 126 C1.62653332 129.20538403 1.62653332 129.20538403 1.5859375 132.9765625 C1.56657135 133.66181 1.5472052 134.3470575 1.5272522 135.05307007 C1.46743169 137.24358644 1.42106244 139.4341553 1.375 141.625 C1.33682237 143.10939802 1.29777076 144.59377384 1.2578125 146.078125 C1.16172916 149.71854685 1.07770718 153.35913436 1 157 C-1 157 -1 157 -2.3046875 155.70703125 C-2.82289063 155.08183594 -3.34109375 154.45664062 -3.875 153.8125 C-7.15633462 149.94766446 -10.54797301 146.21135677 -14 142.5 C-17.1727226 139.08080063 -20.33262713 135.66156541 -23.375 132.125 C-27.36854542 127.50193018 -31.57364194 123.07418381 -35.76318359 118.62939453 C-38.72577547 115.47690359 -41.63620209 112.29410701 -44.47265625 109.02734375 C-48.02521492 104.93967163 -51.71532139 100.99544043 -55.4375 97.0625 C-60.72140283 91.45557236 -65.944358 85.81479592 -71 80 C-69.67027835 77.09878912 -68.1905198 74.87255997 -66.0625 72.5 C-65.43988281 71.80390625 -64.81726563 71.1078125 -64.17578125 70.390625 C-60.27500449 66.10467279 -56.36478796 61.82790563 -52.43945312 57.56445312 C-50.12257697 55.04638284 -47.81143279 52.52306612 -45.5 50 C-42.70614104 46.95033707 -39.9107921 43.90209855 -37.109375 40.859375 C-36.63048828 40.33859375 -36.15160156 39.8178125 -35.65820312 39.28125 C-34.34047349 37.84837894 -33.02183272 36.41634596 -31.703125 34.984375 C-29.6465285 32.73323559 -27.63970906 30.44294092 -25.640625 28.140625 C-21.42349094 23.30500849 -17.01720644 18.65733959 -12.60546875 14 C-8.74804374 9.91096976 -5.00862575 5.75024947 -1.36523438 1.46875 C-0.91470703 0.9840625 -0.46417969 0.499375 0 0 Z " fill="#FDFDFD" transform="translate(308,331)"/>
<path d="M0 0 C7.89892664 24.56608305 15.77281911 49.14036996 23.50192261 73.76049805 C24.1668908 75.87717283 24.83333215 77.99338538 25.50125122 80.10913086 C26.43217727 83.05971824 27.3575251 86.0119953 28.28125 88.96484375 C28.55859482 89.84067612 28.83593964 90.71650848 29.12168884 91.61888123 C29.37092606 92.4200386 29.62016327 93.22119598 29.87695312 94.04663086 C30.09516724 94.74187363 30.31338135 95.43711639 30.53820801 96.15342712 C31 98 31 98 31 101 C24.76994592 99.27763118 19.77032283 95.97054683 14.36523438 92.54492188 C9.80691539 89.75586956 6.35200874 88.34551835 1 88 C-3.14654069 94.52410707 -7.06180148 101.17535845 -10.95565796 107.85217285 C-15.84320766 116.23252359 -20.73566061 124.60772297 -25.76538086 132.90380859 C-60.83288709 187.57329705 -60.83288709 187.57329705 -67.1875 250.3125 C-65.14161948 256.67218469 -65.14161948 256.67218469 -63 263 C-73.90693188 263.55597554 -84.56063178 257.64442098 -92.59594727 250.60107422 C-97.56934035 245.94027096 -100.84544291 240.77711993 -104.1875 234.875 C-104.73994385 233.92012695 -105.2923877 232.96525391 -105.86157227 231.98144531 C-107.5860188 228.99413785 -109.29435129 225.99807325 -111 223 C-112.09852404 221.08048056 -113.19747272 219.16120406 -114.296875 217.2421875 C-115.82435582 214.57392987 -117.34981335 211.90469177 -118.8659668 209.22998047 C-121.23750157 205.04906492 -123.65846065 200.91386962 -126.171875 196.81640625 C-128.44505797 193.04504755 -130.28486195 189.33102663 -131.8125 185.1875 C-132.40998047 183.60001953 -132.40998047 183.60001953 -133.01953125 181.98046875 C-135.14035585 175.53349994 -135.28273977 169.35999672 -135.375 162.625 C-135.41238281 161.62855469 -135.44976562 160.63210938 -135.48828125 159.60546875 C-135.65229932 145.29944851 -129.73523615 133.57250169 -122.5625 121.5625 C-121.84960484 120.34516528 -121.13804326 119.12704873 -120.42773438 117.90820312 C-118.63687148 114.8414997 -116.83110763 111.78388354 -115.02130127 108.72833252 C-112.89392649 105.12820871 -110.79390537 101.51208871 -108.68920898 97.89868164 C-107.56432015 95.96837305 -106.43753292 94.03916948 -105.30883789 92.11108398 C-99.96967202 82.98548049 -94.72790867 73.80514272 -89.50390625 64.61328125 C-88.87355469 63.50597656 -88.24320313 62.39867187 -87.59375 61.2578125 C-86.99175781 60.19723633 -86.38976562 59.13666016 -85.76953125 58.04394531 C-83.63221472 54.36733625 -81.36840015 50.77852 -79.04882812 47.21435547 C-77.81386737 44.60702445 -77.69876139 42.85287139 -78 40 C-79.36181379 38.43003659 -79.36181379 38.43003659 -81.4375 37.3125 C-82.23929688 36.82136719 -83.04109375 36.33023438 -83.8671875 35.82421875 C-84.90101562 35.22222656 -85.93484375 34.62023437 -87 34 C-88.46143017 33.13233971 -89.92232616 32.26377931 -91.3828125 31.39453125 C-95.57590261 28.90767079 -99.78462947 26.44888345 -104 24 C-103.67 23.34 -103.34 22.68 -103 22 C-100.70727539 21.27319336 -100.70727539 21.27319336 -97.59765625 20.58984375 C-95.82890137 20.19526978 -95.82890137 20.19526978 -94.02441406 19.79272461 C-92.70382339 19.50743047 -91.38318371 19.22236315 -90.0625 18.9375 C-88.68573753 18.63415639 -87.30911307 18.33018579 -85.93261719 18.02563477 C-81.29145219 17.00291676 -76.64610282 16.00001287 -72 15 C-70.73781647 14.72808838 -70.73781647 14.72808838 -69.45013428 14.45068359 C-61.41838475 12.72126124 -53.38533445 10.99796936 -45.34960938 9.28710938 C-33.79145947 6.82498699 -22.24834006 4.30777868 -10.72753906 1.67553711 C-9.24012207 1.33921265 -9.24012207 1.33921265 -7.72265625 0.99609375 C-6.87453369 0.80200928 -6.02641113 0.6079248 -5.15258789 0.40795898 C-3 0 -3 0 0 0 Z " fill="#FDFDFD" transform="translate(147,188)"/>
<path d="M0 0 C0.70084213 -0.00532368 1.40168427 -0.01064735 2.12376404 -0.01613235 C5.838032 -0.0427346 9.55226796 -0.06214477 13.26660156 -0.07666016 C16.30402105 -0.0899431 19.34075978 -0.11770838 22.37792969 -0.15869141 C54.70673727 -0.58503538 54.70673727 -0.58503538 67.34375 5.2734375 C68.88023193 5.95732544 68.88023193 5.95732544 70.44775391 6.6550293 C88.10156743 14.95092082 97.83791416 32.13433931 106.96875 48.4609375 C107.65730311 49.68042958 108.34661085 50.89949586 109.03662109 52.11816406 C110.09738439 53.99188826 111.15769924 55.86584991 112.21572876 57.74111938 C115.76085521 64.02452774 119.35939914 70.27672058 122.96875 76.5234375 C123.57775146 77.57781006 124.18675293 78.63218262 124.81420898 79.71850586 C126.65579536 82.90440872 128.49933542 86.08917121 130.34375 89.2734375 C130.98715332 90.38460937 131.63055664 91.49578125 132.29345703 92.640625 C134.20346841 95.93640552 136.11670927 99.23028641 138.03125 102.5234375 C138.60762207 103.51762695 139.18399414 104.51181641 139.77783203 105.53613281 C142.50364239 110.21521066 145.26916524 114.81491555 148.34375 119.2734375 C155.57593105 119.04079391 160.63835573 115.46076131 166.65625 111.7109375 C168.62926986 110.49765098 170.60442317 109.2878247 172.58203125 108.08203125 C173.44868408 107.54376709 174.31533691 107.00550293 175.20825195 106.45092773 C177.34375 105.2734375 177.34375 105.2734375 179.34375 105.2734375 C177.08673292 112.89253381 174.72202342 120.47494931 172.32421875 128.05078125 C171.75263786 129.85972618 171.75263786 129.85972618 171.16950989 131.70521545 C170.16131561 134.89551967 169.15250285 138.0856269 168.14337158 141.27563477 C167.1360896 144.46028899 166.12960817 147.64519604 165.12304688 150.83007812 C163.57127107 155.739762 162.01919345 160.64935026 160.46679688 165.55883789 C158.62694084 171.37755747 156.78749613 177.19640648 154.94921875 183.015625 C154.72243942 183.73318466 154.4956601 184.45074432 154.26200867 185.19004822 C151.93875987 192.54580831 149.63941384 199.90902916 147.34375 207.2734375 C139.63142282 206.07116747 132.05694059 204.59447603 124.46875 202.7734375 C115.70506239 200.70705641 106.92583953 198.73302418 98.125 196.83203125 C97.13039764 196.61709015 96.13579529 196.40214905 95.11105347 196.18069458 C90.12210302 195.10388765 85.13212884 194.03203464 80.14111328 192.96484375 C67.80793919 190.31527335 55.56114146 187.41402872 43.34375 184.2734375 C45.83274381 181.68948805 48.30152501 179.97985621 51.4140625 178.171875 C52.39246094 177.59953125 53.37085938 177.0271875 54.37890625 176.4375 C55.39855469 175.84710938 56.41820312 175.25671875 57.46875 174.6484375 C59.49291672 173.47000167 61.51639302 172.29037885 63.5390625 171.109375 C64.43641113 170.58907715 65.33375977 170.0687793 66.25830078 169.53271484 C68.25841614 168.43870475 68.25841614 168.43870475 69.34375 167.2734375 C69.00214424 161.86802867 67.44394021 158.15853345 64.53125 153.7109375 C60.66076544 147.53997438 57.10260415 141.25293256 53.65625 134.8359375 C47.16648595 122.81529145 40.29506409 111.03171809 33.34375 99.2734375 C32.89338379 98.50821777 32.44301758 97.74299805 31.97900391 96.95458984 C24.4684598 84.20055686 16.41475079 71.98299101 7.34375 60.2734375 C6.64636719 59.36851563 5.94898438 58.46359375 5.23046875 57.53125 C-6.97757491 42.13170681 -22.17458844 26.00274132 -42.55859375 22.8203125 C-44.92748478 22.56780799 -47.2767167 22.37667105 -49.65625 22.2734375 C-46.76116003 15.43049756 -41.850786 11.31223046 -35.71875 7.5234375 C-34.82639648 6.94529297 -34.82639648 6.94529297 -33.91601562 6.35546875 C-23.3263085 -0.33398558 -12.1243773 0.08688779 0 0 Z " fill="#FDFDFD" transform="translate(236.65625,13.7265625)"/>
<path d="M0 0 C17.97168368 8.37078422 31.79866124 26.48053444 43.02734375 42.21484375 C43.54490234 42.93752441 44.06246094 43.66020508 44.59570312 44.40478516 C45.07201172 45.08718262 45.54832031 45.76958008 46.0390625 46.47265625 C46.46018311 47.07480957 46.88130371 47.67696289 47.31518555 48.29736328 C48.48643248 50.34627798 49.12313397 51.72715856 49.33984375 54.08984375 C48.3269043 56.5690918 48.3269043 56.5690918 46.7265625 59.3515625 C46.14334229 60.37886475 45.56012207 61.40616699 44.95922852 62.46459961 C44.32170654 63.55780518 43.68418457 64.65101074 43.02734375 65.77734375 C42.38015381 66.90857666 41.73296387 68.03980957 41.06616211 69.20532227 C39.17125292 72.50842888 37.25950857 75.80107522 35.33984375 79.08984375 C34.87545898 79.88712891 34.41107422 80.68441406 33.93261719 81.50585938 C31.98409051 84.84397281 30.01986965 88.17239665 28.046875 91.49609375 C23.86066686 98.56828508 19.78515645 105.70566434 15.69165039 112.83178711 C11.97466648 119.29264745 8.20191093 125.71458003 4.33984375 132.08984375 C-4.23800846 128.05584337 -12.32700996 123.39929065 -20.4597168 118.54321289 C-28.28541432 113.87838342 -36.1781153 109.34248385 -44.09765625 104.83984375 C-53.6947609 99.38029108 -63.24300601 93.85544594 -72.66015625 88.08984375 C-68.71975051 80.8264673 -64.7272558 73.59553763 -60.66015625 66.40234375 C-60.10255615 65.41613037 -59.54495605 64.42991699 -58.97045898 63.41381836 C-53.80009983 54.29452984 -48.53309077 45.23361149 -43.22265625 36.1953125 C-40.74439486 31.97006873 -38.31434399 27.72093234 -35.91015625 23.453125 C-35.29261475 22.36700928 -34.67507324 21.28089355 -34.03881836 20.16186523 C-32.86219533 18.09063542 -31.69566459 16.01362649 -30.54125977 13.92993164 C-23.42114255 1.46839115 -14.4562243 -5.36239431 0 0 Z " fill="#FDFDFD" transform="translate(200.66015625,48.91015625)"/>
<path d="M0 0 C4.04614795 1.49681534 5.30598212 3.70281231 7.36328125 7.40625 C7.99532471 8.52974854 8.62736816 9.65324707 9.27856445 10.81079102 C9.95660163 12.040495 10.63457862 13.27023218 11.3125 14.5 C12.0211663 15.7662234 12.73106347 17.03175865 13.44213867 18.29663086 C14.9093263 20.90767719 16.37201982 23.52116551 17.83203125 26.13623047 C21.10123089 31.97817503 24.45801965 37.76918658 27.8125 43.5625 C29.0442757 45.69661178 30.27604664 47.8307263 31.5078125 49.96484375 C33.74552213 53.83619224 35.99018499 57.70335578 38.2421875 61.56640625 C38.74258545 62.42613037 39.2429834 63.28585449 39.75854492 64.17163086 C40.67059 65.73751862 41.5846142 67.30225646 42.5012207 68.86547852 C43.68614746 70.90044608 44.84976129 72.94524855 46 75 C46.38559082 75.68078613 46.77118164 76.36157227 47.16845703 77.06298828 C50.56854009 83.38216704 50.89547641 88.87350024 50 96 C48.5 99.375 48.5 99.375 46 102 C45.28263672 102.82177734 45.28263672 102.82177734 44.55078125 103.66015625 C27.29476557 121.30394756 -6.11102106 121.58209865 -29 123 C-36.80256447 109.6579604 -44.58063876 96.30252188 -52.28979492 82.90625 C-55.23949409 77.78075786 -58.1947022 72.65883046 -61.17622375 67.55178833 C-62.57509392 65.15506477 -63.97040892 62.75628035 -65.36550903 60.35736084 C-66.35409266 58.66087854 -67.34776929 56.96736732 -68.34155273 55.27392578 C-69.23596069 53.73454346 -69.23596069 53.73454346 -70.1484375 52.1640625 C-70.67614746 51.26123535 -71.20385742 50.3584082 -71.74755859 49.42822266 C-72.87184003 47.24847546 -73.54033458 45.39597986 -74 43 C-62.21391045 36.08238415 -50.41283619 29.19752967 -38.5 22.5 C-30.21046073 17.83772019 -21.96534569 13.10437331 -13.75 8.3125 C-12.71939453 7.71179688 -11.68878906 7.11109375 -10.62695312 6.4921875 C-5.24888579 3.35026689 -5.24888579 3.35026689 0 0 Z " fill="#FDFDFD" transform="translate(435,231)"/>
<path d="M0 0 C1.6261793 -0.01451946 3.25274436 -0.00114332 4.87861633 0.03364563 C6.21063583 0.03255043 6.21063583 0.03255043 7.56956482 0.03143311 C10.50824316 0.03491989 13.44534147 0.07383233 16.38374329 0.11299133 C18.41968927 0.12231558 20.45564646 0.12943352 22.49160767 0.13442993 C27.85294005 0.15353021 33.21359624 0.20265749 38.57466125 0.25794983 C45.00558243 0.31806413 51.43672958 0.34104407 57.86785126 0.37021637 C67.64054612 0.41872025 77.41175704 0.51451493 87.18452454 0.60127258 C87.18452454 29.64127258 87.18452454 58.68127258 87.18452454 88.60127258 C63.79663216 88.72159901 63.79663216 88.72159901 53.80561829 88.74775696 C46.99581363 88.76567069 40.18613031 88.78683328 33.37641907 88.82759094 C27.88454358 88.8602543 22.39279828 88.8781404 16.90083313 88.88590431 C14.80852714 88.89143528 12.71622804 88.90223588 10.62397766 88.91846275 C7.68697366 88.94032955 4.75050346 88.94323562 1.81343079 88.94184875 C0.95387283 88.95263458 0.09431488 88.96342041 -0.79129028 88.97453308 C-7.62971043 88.93973099 -13.15123086 87.73266826 -18.62797546 83.35127258 C-24.77004224 75.62981721 -25.51712531 67.16742827 -24.81547546 57.60127258 C-23.83104691 52.15597637 -22.40753863 46.89724528 -20.81547546 41.60127258 C-20.60116882 40.88278137 -20.38686218 40.16429016 -20.1660614 39.42402649 C-16.63961335 27.81036025 -12.30535575 16.44012668 -6.81547546 5.60127258 C-6.31163834 4.32149033 -6.31163834 4.32149033 -5.79762268 3.01585388 C-3.81547546 0.60127258 -3.81547546 0.60127258 0 0 Z " fill="#FEFEFE" transform="translate(113.81547546386719,362.3987274169922)"/>
<path d="M0 0 C0.33 0 0.66 0 1 0 C1 9.57 1 19.14 1 29 C0.34 29 -0.32 29 -1 29 C-1.99 26.69 -2.98 24.38 -4 22 C-3.34 22 -2.68 22 -2 22 C-1.67 22.66 -1.34 23.32 -1 24 C-0.67 16.08 -0.34 8.16 0 0 Z " fill="#DFDFDF" transform="translate(308,459)"/>
<path d="M0 0 C0.66 0.33 1.32 0.66 2 1 C1.67 2.32 1.34 3.64 1 5 C0.236875 5.12375 -0.52625 5.2475 -1.3125 5.375 C-4.20267136 5.88102792 -4.20267136 5.88102792 -7 8 C-5.50902342 4.2047869 -3.24299151 2.38957269 0 0 Z " fill="#E5E5E5" transform="translate(182,49)"/>
<path d="M0 0 C0.66 0.33 1.32 0.66 2 1 C2.625 3.0625 2.625 3.0625 3 5 C1.02 5.66 -0.96 6.32 -3 7 C-1.125 2.25 -1.125 2.25 0 0 Z " fill="#111111" transform="translate(127,309)"/>
<path d="M0 0 C2 1 2 1 2 1 Z M-1 1 C-0.67 1.66 -0.34 2.32 0 3 C-2.3125 5.5 -2.3125 5.5 -5 8 C-5.99 8 -6.98 8 -8 8 C-5.69 5.69 -3.38 3.38 -1 1 Z " fill="#171717" transform="translate(258,369)"/>
<path d="M0 0 C1.32 0.66 2.64 1.32 4 2 C3.01 3.485 3.01 3.485 2 5 C0.68 4.34 -0.64 3.68 -2 3 C-1.34 2.01 -0.68 1.02 0 0 Z " fill="#F7F7F7" transform="translate(19,211)"/>
</svg>
