<?xml version="1.0" encoding="UTF-8"?>
<svg version="1.1" xmlns="http://www.w3.org/2000/svg" width="512" height="512">
<path d="M0 0 C168.96 0 337.92 0 512 0 C512 168.96 512 337.92 512 512 C343.04 512 174.08 512 0 512 C0 343.04 0 174.08 0 0 Z " fill="#FDFDFD" transform="translate(0,0)"/>
<path d="M0 0 C1.19882813 0.3609375 2.39765625 0.721875 3.6328125 1.09375 C28.05553778 9.49468744 47.12426781 28.92482343 58.85546875 51.453125 C60 54 60 54 60 56 C60.66 56 61.32 56 62 56 C62.25652344 55.13761719 62.51304687 54.27523437 62.77734375 53.38671875 C66.48531884 43.11574622 73.85953258 34.09514529 81 26 C81.80824219 25.06607422 81.80824219 25.06607422 82.6328125 24.11328125 C98.47765185 7.03429612 123.45526496 -4.01162089 146.51708984 -5.12109375 C163.21362953 -5.70848301 190.66288865 -6.3513206 203.94921875 5.66796875 C206.87666807 10.42437689 206.62068848 14.01862846 205.53076172 19.25390625 C204.90706509 21.6976955 204.19423912 24.09413849 203.4375 26.5 C203.16719971 27.37221191 202.89689941 28.24442383 202.6184082 29.14306641 C196.40270221 48.65678869 187.28020357 64.34688789 173 79 C172.12794922 79.98226562 172.12794922 79.98226562 171.23828125 80.984375 C163.52862368 89.45140448 152.30600829 95.2865443 142 100 C140.88625 100.53625 139.7725 101.0725 138.625 101.625 C126.04072203 106.39834682 113.69627273 107.1971902 100.375 107.25 C99.09753906 107.270625 97.82007813 107.29125 96.50390625 107.3125 C94.59544922 107.32023437 94.59544922 107.32023437 92.6484375 107.328125 C91.51583496 107.3374707 90.38323242 107.34681641 89.21630859 107.35644531 C83.06393861 106.83632602 77.03726128 105.29369885 71 104 C71 147.23 71 190.46 71 235 C85.52224671 233.5124261 85.52224671 233.5124261 99.75 230.875 C100.65919189 230.66254639 101.56838379 230.45009277 102.50512695 230.23120117 C122.67961369 225.2911117 142.63139361 217.25037327 159.50390625 204.9609375 C161 204 161 204 163 204 C159.86123009 199.08514565 156.33830138 194.61689683 152.625 190.125 C149.25437053 186.03771801 145.90294272 181.93680596 142.65625 177.75 C142.17220703 177.12867188 141.68816406 176.50734375 141.18945312 175.8671875 C139.02552641 172.47028447 138.86991172 170.03273661 139 166 C140.57964894 162.71919066 141.72802692 160.66883531 144.98999023 158.95361328 C149.4310729 157.54661605 153.94244392 156.86187493 158.53515625 156.1171875 C159.58520844 155.9419455 160.63526062 155.76670349 161.71713257 155.58615112 C163.98233339 155.20840682 166.24793419 154.83305485 168.5138855 154.45983887 C174.53479712 153.46754649 180.55257897 152.45667355 186.5703125 151.4453125 C188.39836678 151.13847534 188.39836678 151.13847534 190.26335144 150.82543945 C201.67376744 148.90232442 213.05788938 146.84666828 224.4375 144.75 C237.9368039 142.26630027 251.44127773 139.86502665 264.98950195 137.66235352 C271.43877346 136.61088633 277.86043234 135.47262159 284.27612305 134.23291016 C305.78680933 130.11474466 305.78680933 130.11474466 310.82421875 133.0703125 C313.53374061 135.7872577 314.00489486 138.06455929 314.2890625 141.8125 C314.187114 145.93197446 313.02777853 148.81720285 311.125 152.5 C310.46017992 153.84144869 309.80033344 155.18536969 309.14453125 156.53125 C308.79084473 157.25570312 308.4371582 157.98015625 308.07275391 158.7265625 C306.17154565 162.75570481 304.50277035 166.87896684 302.8125 171 C297.76070068 183.24868905 292.57175453 195.43727633 287.375 207.625 C281.34339445 221.77375542 275.33292723 235.93073207 269.37835693 250.11209106 C267.45461824 254.6904347 265.52449427 259.2660896 263.59402466 263.84159851 C262.19470385 267.15947304 260.79868283 270.47861416 259.41308594 273.80224609 C258.0356078 277.10175512 256.64484553 280.39530485 255.25 283.6875 C254.86763184 284.61433594 254.48526367 285.54117187 254.09130859 286.49609375 C253.73633301 287.32625 253.38135742 288.15640625 253.015625 289.01171875 C252.71946289 289.71772217 252.42330078 290.42372559 252.11816406 291.15112305 C250.38466039 294.01746002 248.14413855 295.61268461 244.9921875 296.6796875 C240.91864685 297.05547538 238.76559922 296.62440763 235.54296875 293.99609375 C232.8730388 291.10752387 230.40120616 288.1111913 228 285 C227.55946289 284.43893555 227.11892578 283.87787109 226.66503906 283.29980469 C224.52186498 280.56830831 222.41027713 277.81863321 220.32421875 275.04296875 C217.96187008 271.95007864 215.51062026 268.97275213 213 266 C208.34045472 267.58888709 204.66119126 270.13898774 200.625 272.875 C153.79919363 303.70275784 102.79541681 314.19615033 47.60375977 314.11352539 C44.9513336 314.11324292 42.2989102 314.11335854 39.64648438 314.1139679 C33.96310005 314.11448912 28.27972731 314.11138455 22.5963459 314.10573006 C14.37940005 314.09756025 6.16245973 314.09499425 -2.05448974 314.09374207 C-15.38992666 314.09156011 -28.72535743 314.08492335 -42.06079102 314.07543945 C-55.00545216 314.06624311 -67.95011163 314.05917317 -80.89477539 314.05493164 C-81.69433635 314.05466892 -82.49389731 314.05440619 -83.31768738 314.05413551 C-87.32934303 314.05283035 -91.34099868 314.05156667 -95.35265434 314.05032361 C-128.56844071 314.03997768 -161.78421953 314.0223828 -195 314 C-195.04583057 279.20493568 -195.08104615 244.40987829 -195.10213066 209.61479028 C-195.10463191 205.50198254 -195.10722057 201.38917485 -195.10986328 197.27636719 C-195.1103879 196.45762047 -195.11091252 195.63887376 -195.11145304 194.79531653 C-195.12014312 181.55808573 -195.13590537 168.3208724 -195.15430559 155.08365194 C-195.17304357 141.48953625 -195.18412495 127.89542967 -195.18817699 114.3013016 C-195.19091397 105.92070764 -195.19954197 97.54016305 -195.21583293 89.1595843 C-195.22644799 83.40382634 -195.22959045 77.64809372 -195.22700275 71.8923267 C-195.22572846 68.57720322 -195.22872062 65.26223462 -195.23841095 61.94711494 C-195.33365539 27.67010647 -195.33365539 27.67010647 -190.56166267 22.21011925 C-187.92996239 19.93957383 -186.50602545 19.17402386 -183.16015625 18.44921875 C-182.10715332 18.22024902 -181.05415039 17.9912793 -179.96923828 17.75537109 C-178.64696649 17.4993733 -177.32378066 17.24807725 -176 17 C-175.18118347 16.84501038 -174.36236694 16.69002075 -173.51873779 16.53033447 C-167.56128546 15.4162632 -161.59328866 14.37177987 -155.6184082 13.35571289 C-152.43975338 12.81288482 -149.2638889 12.25540008 -146.08789062 11.69726562 C-144.03661213 11.34545627 -141.98518446 10.99451536 -139.93359375 10.64453125 C-138.5331205 10.39616264 -138.5331205 10.39616264 -137.10435486 10.14277649 C-120.47481852 7.36661978 -120.47481852 7.36661978 -114.875 11.0625 C-111.63631146 16.13644539 -111.72760592 20.87324378 -112.95713806 26.66079712 C-113.18138206 27.67561661 -113.18138206 27.67561661 -113.41015625 28.7109375 C-115.31122394 38.36420992 -115.51229934 47.81226202 -115.4375 57.625 C-115.43194092 58.93827271 -115.43194092 58.93827271 -115.42626953 60.27807617 C-115.16518523 103.71696604 -99.48578847 141.70735481 -72 175 C-71.35160156 175.79148437 -70.70320313 176.58296875 -70.03515625 177.3984375 C-66.07032126 182.09150749 -61.70484658 186.06312666 -57 190 C-56.12601563 190.76183594 -55.25203125 191.52367187 -54.3515625 192.30859375 C-23.43363656 218.87480089 10.90442697 229.53242186 51 235 C51 191.77 51 148.54 51 104 C46.38 104.99 41.76 105.98 37 107 C32.75878906 107.40405273 32.75878906 107.40405273 29.265625 107.43359375 C27.95835449 107.44503418 26.65108398 107.45647461 25.30419922 107.46826172 C23.95278381 107.46033709 22.60138045 107.45004153 21.25 107.4375 C20.55167053 107.43445862 19.85334106 107.43141724 19.1338501 107.42828369 C-7.11309849 107.25963522 -30.25965703 98.59982386 -50 81 C-52.49362641 78.4528623 -54.75159575 75.76376882 -57 73 C-57.62519531 72.28457031 -58.25039062 71.56914062 -58.89453125 70.83203125 C-71.85228255 55.57408741 -83.02553021 32.87639398 -84.5 12.6875 C-83.90219729 8.27870502 -82.24190051 5.89877965 -79 3 C-54.94149432 -8.28705214 -24.80582971 -7.63927884 0 0 Z " fill="#030303" transform="translate(195,198)"/>
<path d="M0 0 C2.72271978 0.00253324 5.44543197 0.0004979 8.16815186 -0.00132751 C13.97582721 -0.00288366 19.78339971 0.00634902 25.59104919 0.023386 C33.98741954 0.04800077 42.38374129 0.05560394 50.7801438 0.05934998 C64.41009785 0.0658797 78.03999736 0.08574519 91.66992188 0.11425781 C104.89257539 0.14188931 118.11521398 0.16307809 131.33789062 0.17578125 C132.56504875 0.17696351 132.56504875 0.17696351 133.81699795 0.17816965 C137.92210629 0.18208539 142.02721474 0.18587636 146.13232327 0.18960536 C180.06807274 0.22059263 214.00375619 0.27333212 247.93945312 0.34057617 C247.98529189 34.9912246 248.02050342 69.64186606 248.04158378 104.29253829 C248.04408501 108.38903599 248.04667368 112.48553364 248.04931641 116.58203125 C248.05010334 117.80527194 248.05010334 117.80527194 248.05090617 119.05322456 C248.05959431 132.23481436 248.07535547 145.41638661 248.09375872 158.59796602 C248.11250212 172.13671593 248.12357922 185.67545668 248.12763011 199.21421903 C248.13036598 207.55949432 248.13898784 215.90471997 248.15528606 224.24997997 C248.16590782 229.98285152 248.16904208 235.71569764 248.16645588 241.44857831 C248.16518262 244.74963439 248.16816472 248.05058667 248.17786407 251.35163116 C248.27618586 286.55579356 248.27618586 286.55579356 243.58172798 292.15037632 C240.23161051 294.9273118 237.11483017 295.61864325 232.93945312 296.34057617 C232.06645569 296.50841614 231.19345825 296.6762561 230.29400635 296.84918213 C227.24498385 297.42626194 224.1913592 297.96914432 221.13476562 298.50463867 C220.0156076 298.70157318 218.89644958 298.89850769 217.74337769 299.10140991 C215.38535968 299.51481438 213.02704619 299.92653658 210.66845703 300.33666992 C207.08151373 300.96259906 203.49685834 301.60065393 199.91210938 302.23901367 C197.61145922 302.6408067 195.31068189 303.04187238 193.00976562 303.44213867 C191.94903839 303.63272858 190.88831116 303.82331848 189.79544067 304.01968384 C173.5489047 306.80186905 173.5489047 306.80186905 167.81445312 303.59057617 C164.0664553 297.09404661 165.64068521 289.68047989 166.94726562 282.56713867 C168.27781481 274.11848203 168.29031861 265.74683141 168.25195312 257.21557617 C168.24971741 255.98818222 168.24971741 255.98818222 168.24743652 254.73599243 C168.20796504 242.69115213 167.68450108 231.11056087 164.93945312 219.34057617 C164.65761184 218.00346109 164.37636426 216.66622072 164.09570312 215.32885742 C158.75945037 191.11616487 147.79515598 169.06873772 132.93945312 149.34057617 C129.13255344 144.0532155 128.02549793 141.73826254 128.93945312 135.34057617 C131.8390763 131.75420014 134.05444722 129.6474376 138.62695312 128.90307617 C143.94617141 129.60561444 147.18832836 133.16045766 150.48413086 137.26367188 C151.9876364 139.38034598 153.41317575 141.52991373 154.81445312 143.71557617 C155.32911133 144.50649658 155.84376953 145.29741699 156.37402344 146.11230469 C171.53641364 169.6582449 182.08751522 194.68272259 186.93945312 222.34057617 C187.12113037 223.32662842 187.30280762 224.31268066 187.48999023 225.32861328 C189.08348778 234.94255041 189.21414102 244.37782201 189.14526367 254.10205078 C189.12681549 256.79819065 189.12475607 259.49398859 189.125 262.19018555 C189.12008954 263.92651661 189.1142633 265.66284539 189.10742188 267.39916992 C189.10630905 268.19407333 189.10519623 268.98897675 189.10404968 269.80796814 C189.06511969 274.41568792 188.69615932 278.79392306 187.93945312 283.34057617 C189.01428955 283.12852539 190.08912598 282.91647461 191.1965332 282.69799805 C195.18230437 281.9124331 199.16879641 281.13058167 203.15551758 280.34985352 C204.8813028 280.01134971 206.60689054 279.67183746 208.33227539 279.33129883 C210.81149967 278.84215651 213.29141018 278.35663829 215.77148438 277.87182617 C216.54345657 277.71870972 217.31542877 277.56559326 218.11079407 277.40783691 C221.10379725 276.82568105 223.88227115 276.34057617 226.93945312 276.34057617 C227.36659045 207.00633066 210.93302404 143.96924649 161.3671875 92.81518555 C159.97894727 91.38136698 158.60735993 89.93148337 157.23632812 88.48120117 C150.87240543 81.89398295 144.0705191 76.21083044 136.76757812 70.7199707 C134.94803252 69.34704967 133.14664463 67.95261775 131.34570312 66.55541992 C122.72937329 59.95801783 113.71631235 54.52344902 104.11230469 49.48413086 C102.10340767 48.42686416 100.11086623 47.34378219 98.11914062 46.25463867 C77.66832329 35.31346478 54.64047557 28.28608179 31.81445312 24.65307617 C29.91373047 24.335 29.91373047 24.335 27.97460938 24.01049805 C-31.16730574 14.35653971 -94.26304939 28.25697294 -143.06054688 63.34057617 C-144.23592039 64.24266947 -145.40897421 65.14779069 -146.58007812 66.05541992 C-156.94728989 74.00978821 -156.94728989 74.00978821 -161.81054688 74.65307617 C-168.35409868 73.7822153 -172.30512759 67.22050749 -176.06054688 62.34057617 C-176.51703613 61.7529248 -176.97352539 61.16527344 -177.44384766 60.55981445 C-179.25916444 58.21716427 -181.07178416 55.87439206 -182.83764648 53.49414062 C-185.02661207 50.44506154 -185.02661207 50.44506154 -188.06054688 48.34057617 C-188.23831665 48.89690735 -188.41608643 49.45323853 -188.59924316 50.02642822 C-190.30377083 55.26294851 -192.22200902 60.3334174 -194.40429688 65.38745117 C-194.72588776 66.14056076 -195.04747864 66.89367035 -195.3788147 67.66960144 C-196.07345708 69.29535471 -196.76968124 70.92043288 -197.46734619 72.54489136 C-198.97180489 76.0482533 -200.46821307 79.55503577 -201.96511841 83.06163025 C-202.75955734 84.92252099 -203.55438405 86.78324622 -204.34957886 88.64381409 C-208.57771765 98.53958952 -212.77006548 108.45040497 -216.95532227 118.36437988 C-218.15295415 121.20088271 -219.35181338 124.03686442 -220.55078125 126.87280273 C-225.11262956 137.67165356 -229.61921496 148.4915958 -234.06054688 159.34057617 C-233.43003418 159.21529541 -232.79952148 159.09001465 -232.14990234 158.9609375 C-219.64845107 156.4886774 -207.13866131 154.13994365 -194.56054688 152.09057617 C-180.17852101 149.74443277 -165.83837887 147.17818627 -151.49804688 144.59057617 C-150.37430664 144.38799194 -149.25056641 144.18540771 -148.09277344 143.97668457 C-144.87223395 143.39574807 -141.65187989 142.81379944 -138.43164062 142.23120117 C-136.97261574 141.9674469 -136.97261574 141.9674469 -135.4841156 141.69836426 C-134.57919876 141.53421021 -133.67428192 141.37005615 -132.74194336 141.20092773 C-131.95528793 141.05834534 -131.16863251 140.91576294 -130.35813904 140.76885986 C-128.70476053 140.46066111 -127.05497269 140.13296794 -125.40785217 139.79290771 C-123.11913379 139.35186602 -121.07336985 139.23866392 -118.74804688 139.27807617 C-117.53117188 139.29870117 -116.31429687 139.31932617 -115.06054688 139.34057617 C-119.8274781 132.62530794 -124.77035103 126.1448792 -130.08007812 119.84838867 C-132.71199095 116.51567066 -134.80147729 113.66470959 -135.62304688 109.46557617 C-134.56197942 103.570757 -129.83910586 99.71241504 -125.09960938 96.34838867 C-123.6368429 95.37442861 -122.16504667 94.41392437 -120.68554688 93.46557617 C-119.89100098 92.94946777 -119.09645508 92.43335937 -118.27783203 91.90161133 C-115.88365969 90.36192153 -113.47631531 88.84611394 -111.06054688 87.34057617 C-110.39732422 86.92485352 -109.73410156 86.50913086 -109.05078125 86.08081055 C-93.82468047 76.67319895 -76.97192245 69.68301866 -59.74804688 64.90307617 C-58.95124512 64.68047119 -58.15444336 64.45786621 -57.33349609 64.22851562 C-41.50166203 60.12928601 -25.73809409 58.78879596 -9.43554688 58.90307617 C-8.52322296 58.90578522 -7.61089905 58.90849426 -6.67092896 58.9112854 C8.169223 58.97786513 22.45053009 59.87521924 36.93945312 63.34057617 C37.72416992 63.5278125 38.50888672 63.71504883 39.31738281 63.90795898 C44.28147068 65.144177 49.1130053 66.64986095 53.93945312 68.34057617 C54.73061523 68.61305176 55.52177734 68.88552734 56.33691406 69.16625977 C58.81835285 70.03297081 61.28646618 70.92955261 63.75195312 71.84057617 C64.5117749 72.11297119 65.27159668 72.38536621 66.05444336 72.66601562 C70.583181 74.41233791 73.34606318 76.03155903 75.93945312 80.34057617 C76.70247888 83.11904238 76.61238293 85.54141438 75.93945312 88.34057617 C73.76370897 91.03162816 72.02879456 92.79590545 68.93945312 94.34057617 C63.98669587 94.76284883 60.69974919 93.64261788 56.18945312 91.65307617 C50.58761505 89.29532944 44.97744616 87.30296687 39.12695312 85.65307617 C38.47823242 85.46334229 37.82951172 85.2736084 37.16113281 85.078125 C23.28315252 81.28197276 9.45259589 79.85528829 -4.88476562 80.00439453 C-7.32390055 80.02820654 -9.76194801 80.02489119 -12.20117188 80.01831055 C-44.01606949 80.07285713 -78.99272968 89.09378549 -104.97460938 108.14135742 C-108.06054688 110.34057617 -108.06054688 110.34057617 -110.06054688 110.34057617 C-106.94529043 115.22190258 -103.44167581 119.63647855 -99.74804688 124.09057617 C-92.07323643 133.4820214 -92.07323643 133.4820214 -88.74804688 137.96557617 C-88.21566406 138.6797168 -87.68328125 139.39385742 -87.13476562 140.12963867 C-85.7338472 143.0129835 -85.81251919 145.17180868 -86.06054688 148.34057617 C-86.99804688 151.02807617 -86.99804688 151.02807617 -89.06054688 153.34057617 C-94.94579531 155.95983321 -101.31721603 157.12071686 -107.62695312 158.21557617 C-108.54975571 158.38115524 -109.47255829 158.54673431 -110.42332458 158.71733093 C-113.48872862 159.26523489 -116.55580469 159.8030654 -119.62304688 160.34057617 C-121.81256875 160.72926785 -124.00202016 161.11835671 -126.19140625 161.5078125 C-147.22157619 165.2365401 -168.2729889 168.84743372 -189.3269043 172.43945312 C-206.34151113 175.34247823 -206.34151113 175.34247823 -223.33398438 178.37182617 C-224.14426086 178.51868362 -224.95453735 178.66554108 -225.78936768 178.81684875 C-229.31171741 179.45588784 -232.83187467 180.10290678 -236.34960938 180.76708984 C-253.50971714 183.90074664 -253.50971714 183.90074664 -257.77734375 181.29052734 C-260.36324116 178.62796758 -261.05423086 176.39836767 -261.45117188 172.76635742 C-261.29780024 167.30109007 -258.99451831 162.89549412 -256.68554688 158.02807617 C-255.66430776 155.79306227 -254.6477401 153.55591048 -253.63476562 151.31713867 C-253.35627274 150.70401321 -253.07777985 150.09088776 -252.79084778 149.45918274 C-249.23731237 141.593417 -245.94993539 133.61550714 -242.63800049 125.64584351 C-235.39199163 108.21169868 -228.02611193 90.83193826 -220.56176758 73.49023438 C-216.9949785 65.20109746 -213.44621106 56.90573479 -209.95898438 48.58276367 C-209.31350005 47.04580719 -208.6679928 45.50886034 -208.02246094 43.97192383 C-206.83274504 41.13842517 -205.65094845 38.30180398 -204.47363281 35.46313477 C-203.94301023 34.19819688 -203.4121029 32.9333784 -202.88085938 31.66870117 C-202.42984863 30.58492187 -201.97883789 29.50114258 -201.51416016 28.38452148 C-197.55122225 20.08591386 -197.55122225 20.08591386 -194.06054688 18.34057617 C-187.35454271 17.54494856 -187.35454271 17.54494856 -184.33886719 19.39916992 C-179.75079934 23.43732624 -176.10538416 27.85660637 -172.49804688 32.77807617 C-168.52028996 38.1373295 -164.46030485 43.31889752 -160.06054688 48.34057617 C-155.3158288 46.725353 -151.50023761 44.10708148 -147.37304688 41.34057617 C-122.11545984 24.80095683 -94.78928656 13.19587918 -65.43554688 6.15307617 C-63.98172607 5.79584473 -63.98172607 5.79584473 -62.49853516 5.43139648 C-41.84898268 0.7010733 -21.10103203 -0.09353974 0 0 Z " fill="#040404" transform="translate(264.060546875,-0.340576171875)"/>
<path d="M0 0 C-0.00666183 0.83326561 -0.00666183 0.83326561 -0.01345825 1.68336487 C-0.05820415 7.54108062 -0.08807557 13.39874671 -0.10986328 19.2565918 C-0.11983156 21.43369524 -0.13341104 23.61078561 -0.15087891 25.7878418 C-0.27941906 42.23720118 0.54507622 57.60282803 4.625 73.625 C4.88297363 74.64207031 5.14094727 75.65914063 5.40673828 76.70703125 C16.08813799 117.29004845 39.86869497 155.07475382 73 181 C73.5465625 181.42829102 74.093125 181.85658203 74.65625 182.29785156 C102.28899256 203.76032831 133.65954324 216.26266202 168 222 C168.91257568 222.17724609 169.82515137 222.35449219 170.76538086 222.53710938 C174.6091736 223.08717587 178.39172536 223.16217264 182.265625 223.16796875 C183.45402985 223.17296135 183.45402985 223.17296135 184.66644287 223.17805481 C186.34402898 223.18310283 188.02162506 223.18546379 189.69921875 223.18530273 C192.20070245 223.18745753 194.70172105 223.20554682 197.203125 223.22460938 C226.7768597 223.32765757 255.73698395 217.53681632 282.18408203 203.93164062 C284.14216361 202.92706422 286.1154978 201.95655937 288.08984375 200.984375 C306.01224575 192.00887564 306.01224575 192.00887564 321 179 C322.48917152 173.4094754 322.48917152 173.4094754 320.41796875 168.2421875 C317.07298 163.57450472 313.30054176 159.22143003 309.6015625 154.83398438 C309.03953125 154.15529297 308.4775 153.47660156 307.8984375 152.77734375 C307.38974121 152.17140381 306.88104492 151.56546387 306.35693359 150.94116211 C304.81305321 148.73256316 303.91396043 146.52687986 303 144 C305.41155421 143.57692031 307.82310881 143.15384284 310.23466492 142.73077393 C312.43430678 142.34486273 314.63394236 141.95891567 316.83357239 141.57293701 C323.094308 140.47439693 329.35515932 139.37652289 335.61621094 138.27978516 C338.25847496 137.81679676 340.90073178 137.35376769 343.54296875 136.890625 C344.21222004 136.77331905 344.88147133 136.65601311 345.57100296 136.53515244 C355.14836191 134.85597292 364.72350018 133.16460007 374.29722786 131.46484756 C378.85668426 130.65590398 383.41668015 129.85000589 387.97659302 129.04364014 C390.48815611 128.5985962 392.99944942 128.15202707 395.51046753 127.70391846 C399.02193514 127.07741831 402.53428815 126.45612689 406.046875 125.8359375 C407.08705276 125.64892273 408.12723053 125.46190796 409.19892883 125.26922607 C410.15776474 125.10094299 411.11660065 124.93265991 412.10449219 124.75927734 C412.93406433 124.61179047 413.76363647 124.46430359 414.61834717 124.31234741 C417.10544954 123.98617057 419.49450369 123.94580846 422 124 C421.33146095 128.37470681 419.77170755 132.20550666 418.0078125 136.23046875 C417.7063179 136.92925644 417.4048233 137.62804413 417.0941925 138.3480072 C416.10876179 140.62972525 415.11679741 142.90854316 414.125 145.1875 C413.43569784 146.78148696 412.74698257 148.37572784 412.05883789 149.97021484 C411.01925881 152.3789722 409.9794089 154.78760637 408.93782043 157.19549561 C406.07065412 163.82450978 403.24348379 170.46985037 400.4375 177.125 C399.56910787 179.1823328 398.70061628 181.23962363 397.83203125 183.296875 C397.38553223 184.35455078 396.9390332 185.41222656 396.47900391 186.50195312 C394.78519201 190.50805032 393.08653279 194.51207174 391.38671875 198.515625 C391.07494186 199.25001801 390.76316498 199.98441101 390.44194031 200.74105835 C389.2049105 203.65466867 387.96779045 206.56824035 386.72994995 209.48150635 C383.12140747 217.97449542 379.53508578 226.47609208 376 235 C371.65585714 233.08176959 369.41596659 230.0333075 366.625 226.3125 C365.65076449 225.04348334 364.67551351 223.77524559 363.69921875 222.5078125 C363.23435059 221.90098633 362.76948242 221.29416016 362.29052734 220.66894531 C358.28397018 215.09604379 358.28397018 215.09604379 353 211 C345.83245862 210.21218834 342.56016559 212.02567988 337 216.375 C335.5037782 217.48511596 334.00502091 218.59182171 332.50390625 219.6953125 C331.75254395 220.25250977 331.00118164 220.80970703 330.22705078 221.38378906 C314.52471248 232.77925931 297.08137558 240.91866036 279.15136719 248.13330078 C277.30650603 248.87652106 275.4688847 249.63766867 273.6328125 250.40234375 C222.74771617 270.26148982 158.0260757 268.13973101 108.08984375 246.35546875 C107.07019531 245.90816406 106.05054688 245.46085938 105 245 C103.82566406 244.52175781 102.65132812 244.04351562 101.44140625 243.55078125 C65.57675081 228.79325201 32.34446176 202.96599568 9.29003906 171.734375 C7.98541245 169.98038797 6.64879616 168.25511043 5.3046875 166.53125 C-14.9389476 140.23692097 -27.59218757 109.15588535 -35 77 C-35.27714844 75.8759375 -35.55429687 74.751875 -35.83984375 73.59375 C-40.93316658 51.90278312 -41.99841223 28.04319013 -39 6 C-33.9284982 5.14239502 -28.85647325 4.28797995 -23.78393555 3.43652344 C-22.05820174 3.14638596 -20.33261446 2.85537559 -18.60717773 2.56347656 C-16.1278213 2.14418937 -13.64795583 1.72803865 -11.16796875 1.3125 C-10.39599655 1.18125732 -9.62402435 1.05001465 -8.82865906 0.91479492 C-5.84755325 0.4177877 -3.02824037 0 0 0 Z " fill="#FCFCFC" transform="translate(60,229)"/>
<path d="M0 0 C0.33 0 0.66 0 1 0 C1.01417969 0.83015625 1.02835937 1.6603125 1.04296875 2.515625 C1.9084254 24.87715358 7.04188148 46.80531149 14 68 C14.23267578 68.71978027 14.46535156 69.43956055 14.70507812 70.18115234 C25.4992064 102.95824782 44.37537411 132.23978276 67 158 C67.86753906 158.99128906 68.73507813 159.98257813 69.62890625 161.00390625 C74.46615493 166.43196393 79.43286584 171.33870462 85 176 C86.04084901 176.91202767 87.07974518 177.82628654 88.1171875 178.7421875 C99.94211662 189.13033318 112.41287195 198.03449543 126 206 C126.63824707 206.38124023 127.27649414 206.76248047 127.93408203 207.15527344 C161.70838523 227.23379333 200.77673154 238.92431609 240 241 C240 241.33 240 241.66 240 242 C160.8 242 81.6 242 0 242 C0 162.14 0 82.28 0 0 Z " fill="#FDFDFD" transform="translate(0,270)"/>
<path d="M0 0 C78.87 0 157.74 0 239 0 C239 78.54 239 157.08 239 238 C238.67 238 238.34 238 238 238 C237.94054199 237.34854004 237.88108398 236.69708008 237.81982422 236.02587891 C232.35894813 178.36988877 210.12019492 125.31760941 170.53515625 82.7578125 C168.55963751 80.60878904 166.66595636 78.43992926 164.8125 76.1875 C162.25329808 73.17412985 159.44840186 70.61568343 156.43359375 68.0625 C154.59020587 66.50020658 152.7767034 64.9190809 150.97265625 63.3125 C122.5818494 38.21307938 87.02612178 18.82889782 50.25 9.4375 C49.09693359 9.14085449 47.94386719 8.84420898 46.75585938 8.53857422 C31.37831824 4.70256907 15.79096786 2.2748318 0 1 C0 0.67 0 0.34 0 0 Z " fill="#FDFDFD" transform="translate(273,0)"/>
<path d="M0 0 C-2.82797886 17.5963129 -12.67679163 33.46756908 -25 46 C-25.68707031 46.69996094 -26.37414062 47.39992188 -27.08203125 48.12109375 C-42.22823445 62.53668233 -61.64349182 68.41471694 -82.1875 68.3125 C-83.8125647 68.31056641 -83.8125647 68.31056641 -85.47045898 68.30859375 C-94.26665407 68.20407157 -102.4681082 67.13615175 -111 65 C-110.43565913 59.47235353 -109.0270111 54.85957543 -106.875 49.75 C-106.56079102 49.00202148 -106.24658203 48.25404297 -105.92285156 47.48339844 C-96.14371775 24.82824228 -79.16687497 9.28732518 -56.5 -0.02734375 C-54.34850973 -0.79957508 -52.21330929 -1.43063421 -50 -2 C-49.2678125 -2.20367187 -48.535625 -2.40734375 -47.78125 -2.6171875 C-32.3281919 -6.18703953 -14.95801501 -4.986005 0 0 Z " fill="#FCFCFC" transform="translate(379,217)"/>
<path d="M0 0 C8.69749956 6.40587896 15.28207264 13.29842101 21.1875 22.34765625 C22.09822266 23.73597656 22.09822266 23.73597656 23.02734375 25.15234375 C26.54448426 30.83210239 29.26166235 36.61864406 31.625 42.84765625 C31.8842627 43.53045654 32.14352539 44.21325684 32.41064453 44.91674805 C33.63511243 48.29855166 34.1875 50.70143156 34.1875 54.34765625 C9.40996512 60.63561072 -15.72918897 59.18397618 -38.06591797 46.40771484 C-42.36159615 43.80052521 -46.11845939 40.73710053 -49.8125 37.34765625 C-50.56789062 36.68378906 -51.32328125 36.01992188 -52.1015625 35.3359375 C-61.30693638 26.77905216 -67.18889533 16.24355581 -72.3125 4.91015625 C-72.65095947 4.16515869 -72.98941895 3.42016113 -73.33813477 2.65258789 C-75.27674024 -1.82030638 -76.35183881 -5.79620708 -76.8125 -10.65234375 C-50.34681743 -18.33150553 -22.94808965 -15.95281041 0 0 Z " fill="#FCFCFC" transform="translate(209.8125,227.65234375)"/>
<path d="M0 0 C4.04212164 2.47018545 5.67811019 3.93965709 7.0625 8.5 C6.99187106 12.45522051 6.51464223 13.98242933 4 17 C1.25772005 19.14935455 -0.54798392 19.93408099 -4 20.4375 C-7.74625013 19.89117186 -9.34603528 18.65396472 -12 16 C-13.20190901 12.39427296 -13.32670315 9.7897565 -13 6 C-9.33404658 0.37887142 -6.67491925 -0.66749193 0 0 Z " fill="#090909" transform="translate(373,97)"/>
<path d="M0 0 C0.33 0 0.66 0 1 0 C1 5.61 1 11.22 1 17 C0.34 17.33 -0.32 17.66 -1 18 C-1.66 17.34 -2.32 16.68 -3 16 C-2.5359375 14.824375 -2.5359375 14.824375 -2.0625 13.625 C-0.73664193 9.10148422 -0.35188915 4.68568186 0 0 Z " fill="#EEEEEE" transform="translate(511,274)"/>
<path d="M0 0 C0.99 0.99 1.98 1.98 3 3 C-0.75 6 -0.75 6 -3 6 C-1.125 1.125 -1.125 1.125 0 0 Z " fill="#121212" transform="translate(68,19)"/>
</svg>
